<?xml version="1.0" standalone="no"?>
<!DOCTYPE svg PUBLIC "-//W3C//DTD SVG 20010904//EN"
 "http://www.w3.org/TR/2001/REC-SVG-20010904/DTD/svg10.dtd">
<svg version="1.0" xmlns="http://www.w3.org/2000/svg"
 width="363.000000pt" height="191.000000pt" viewBox="0 0 363.000000 191.000000"
 preserveAspectRatio="xMidYMid meet">

<g transform="translate(0.000000,191.000000) scale(0.100000,-0.100000)"
fill="#000000" stroke="none">
<path d="M1585 1891 c-56 -24 -75 -82 -75 -225 0 -86 4 -119 18 -146 23 -47
74 -72 132 -67 79 9 110 69 110 217 -1 100 -23 175 -61 202 -29 22 -94 32
-124 19z m77 -42 c48 -26 82 -189 58 -279 -30 -113 -125 -121 -160 -14 -18 52
-8 209 15 254 26 51 46 61 87 39z"/>
<path d="M77 1875 c-45 -16 -51 -20 -43 -34 5 -7 15 -7 32 -1 65 25 134 -1
134 -50 0 -33 -44 -70 -84 -70 -29 0 -33 -3 -29 -20 3 -13 14 -20 29 -20 61 0
96 -39 96 -108 0 -37 -5 -51 -24 -65 -29 -24 -88 -18 -131 13 -35 27 -57 14
-30 -18 25 -30 102 -48 149 -36 55 13 79 52 79 124 -1 48 -5 64 -24 84 -22 23
-22 25 -6 50 26 40 15 103 -25 139 -34 30 -65 33 -123 12z"/>
<path d="M1308 1883 c-88 -4 -126 -23 -45 -23 23 0 48 -4 54 -8 9 -6 13 -62
15 -202 3 -187 4 -195 23 -195 23 0 23 0 11 238 l-8 157 61 0 c34 0 61 4 61 8
0 18 -26 32 -54 30 -17 -1 -70 -4 -118 -5z"/>
<path d="M1826 1853 c-3 -21 -6 -118 -6 -215 l0 -178 73 0 c92 0 153 10 135
21 -7 5 -35 9 -63 9 -94 1 -95 2 -95 90 l0 78 70 7 c50 5 70 11 70 21 0 10
-14 14 -47 14 -85 0 -91 5 -95 68 -2 32 -2 60 1 64 4 4 43 10 89 14 70 6 104
17 91 28 -2 2 -52 6 -110 10 l-106 6 -7 -37z"/>
<path d="M415 1868 c-2 -7 -31 -88 -63 -179 -74 -206 -78 -222 -56 -240 14
-11 18 -11 30 5 7 10 18 43 25 74 l11 55 71 -7 c39 -4 76 -11 82 -16 16 -13
38 -84 44 -142 2 -20 38 -4 76 35 54 53 71 110 85 271 5 65 10 119 12 120 2 2
24 1 51 -2 l47 -4 0 -187 c0 -188 4 -211 37 -211 10 0 13 42 13 198 0 108 -3
207 -6 220 -6 21 -11 22 -100 22 l-94 0 0 -67 c0 -126 -17 -230 -46 -283 -15
-28 -30 -50 -33 -50 -4 0 -19 35 -33 78 -98 286 -112 322 -130 322 -10 0 -21
-6 -23 -12z m38 -105 c8 -27 24 -72 36 -100 l21 -53 -68 0 -68 0 28 83 c15 45
28 90 28 100 0 29 8 19 23 -30z"/>
<path d="M1045 1868 c-2 -7 -31 -88 -63 -179 -74 -206 -78 -222 -56 -240 14
-11 18 -11 30 5 7 10 18 43 25 74 l11 55 71 -7 c40 -4 77 -12 83 -19 7 -7 19
-36 29 -64 16 -52 37 -68 49 -38 3 9 -15 73 -40 143 -25 70 -57 162 -71 205
-20 60 -30 77 -45 77 -10 0 -21 -6 -23 -12z m38 -105 c8 -27 24 -72 36 -100
l21 -53 -68 0 -68 0 28 83 c15 45 28 90 28 100 0 29 8 19 23 -30z"/>
<path d="M211 1164 c-12 -9 -36 -45 -53 -81 -29 -59 -61 -93 -76 -78 -3 3 -9
40 -12 82 -3 47 -10 78 -17 80 -9 3 -13 -45 -15 -199 -2 -112 1 -211 5 -221 5
-10 16 -17 25 -15 15 3 17 15 13 96 -2 52 1 92 6 92 24 0 50 -34 78 -101 37
-90 63 -109 124 -93 29 8 43 8 51 0 17 -16 37 16 51 82 l11 55 71 -7 c40 -4
77 -12 83 -19 19 -20 45 -110 35 -117 -6 -3 -6 -11 -2 -19 23 -37 112 49 136
131 8 29 19 106 25 172 5 65 10 119 12 120 2 2 24 1 51 -2 l47 -4 0 -187 c0
-188 4 -211 37 -211 10 0 13 42 13 198 0 108 -3 207 -6 220 -6 21 -11 22 -100
22 l-94 0 0 -67 c0 -126 -17 -230 -46 -284 l-28 -50 -44 123 c-24 68 -55 158
-69 201 -39 120 -51 111 -128 -105 -35 -97 -66 -191 -70 -207 -6 -27 -11 -31
-39 -31 -42 0 -58 19 -85 102 -17 51 -32 75 -59 98 -22 18 -30 30 -21 30 24 0
55 39 84 105 29 66 38 75 78 75 33 0 36 15 5 24 -36 9 -52 7 -77 -10z m282
-121 c8 -27 24 -72 36 -100 l21 -53 -68 0 -68 0 28 83 c15 45 28 90 28 100 0
29 8 19 23 -30z"/>
<path d="M1645 1171 c-56 -24 -75 -82 -75 -225 0 -86 4 -119 18 -146 23 -47
74 -72 132 -67 79 9 110 69 110 217 -1 100 -23 175 -61 202 -29 22 -94 32
-124 19z m77 -42 c48 -26 82 -189 58 -279 -30 -113 -125 -121 -160 -14 -18 52
-8 209 15 254 26 51 46 61 87 39z"/>
<path d="M968 963 c-2 -114 0 -212 5 -218 13 -17 159 -12 194 7 56 31 67 115
21 173 -27 34 -67 54 -130 63 l-53 7 -5 84 c-3 53 -9 86 -17 88 -9 3 -13 -46
-15 -204z m150 -33 c55 -34 68 -95 27 -136 -22 -21 -33 -25 -78 -22 l-52 3 -3
88 -3 87 38 0 c21 0 53 -9 71 -20z"/>
<path d="M1267 1133 c-4 -21 -7 -117 -8 -213 l-1 -175 112 0 c121 0 113 4 122
-60 2 -11 10 -20 18 -20 11 0 16 15 18 58 3 55 2 57 -22 57 l-26 0 -2 192 c-2
128 -7 193 -14 195 -8 3 -13 -56 -18 -189 -5 -129 -11 -195 -19 -200 -7 -4
-37 -8 -68 -8 l-56 0 -6 192 c-6 186 -18 250 -30 171z"/>
<path d="M365 451 c-56 -24 -75 -82 -75 -225 0 -86 4 -119 18 -146 23 -47 74
-72 132 -67 79 9 110 69 110 217 -1 100 -23 175 -61 202 -29 22 -94 32 -124
19z m77 -42 c48 -26 82 -189 58 -279 -30 -113 -125 -121 -160 -14 -18 52 -8
209 15 254 26 51 46 61 87 39z"/>
<path d="M1046 413 c-3 -21 -6 -118 -6 -215 l0 -178 73 0 c92 0 153 10 135 21
-7 5 -35 9 -63 9 -94 1 -95 2 -95 90 l0 78 70 7 c50 5 70 11 70 21 0 10 -14
14 -47 14 -85 0 -91 5 -95 68 -2 32 -2 60 1 64 4 4 43 10 89 14 70 6 104 17
91 28 -2 2 -52 6 -110 10 l-106 6 -7 -37z"/>
<path d="M1608 243 c-2 -114 0 -212 5 -218 13 -17 159 -12 194 7 56 31 67 115
21 173 -27 34 -67 54 -130 63 l-53 7 -5 84 c-3 53 -9 86 -17 88 -9 3 -13 -46
-15 -204z m150 -33 c55 -34 68 -95 27 -136 -22 -21 -33 -25 -78 -22 l-52 3 -3
88 -3 87 38 0 c21 0 53 -9 71 -20z"/>
<path d="M1906 409 c-3 -24 -7 -124 -9 -222 l-2 -177 116 0 c64 0 137 3 163 6
l46 7 -2 210 c-2 142 -7 212 -14 214 -8 3 -13 -56 -18 -189 -4 -106 -11 -197
-15 -201 -5 -5 -26 -7 -47 -5 l-39 3 -3 192 c-2 158 -5 192 -17 197 -12 4 -15
-5 -16 -47 -1 -29 -4 -119 -8 -202 l-6 -150 -45 0 -45 0 -8 195 c-7 191 -20
256 -31 169z"/>
<path d="M2548 243 c-2 -114 0 -212 5 -218 4 -5 42 -10 85 -10 98 0 136 19
153 74 28 93 -56 181 -173 181 -32 0 -37 12 -40 109 -2 40 -8 66 -15 68 -9 3
-13 -46 -15 -204z m150 -33 c55 -34 68 -95 27 -136 -22 -21 -33 -25 -78 -22
l-52 3 -3 88 -3 87 38 0 c21 0 53 -9 71 -20z"/>
<path d="M2867 443 c-3 -4 -6 -100 -8 -212 -3 -186 -2 -205 14 -215 13 -8 20
-8 25 1 10 16 -4 413 -16 425 -5 5 -12 6 -15 1z"/>
<path d="M3238 243 c-2 -114 0 -212 5 -218 4 -5 42 -10 85 -10 98 0 136 19
153 74 28 93 -56 181 -173 181 -32 0 -37 12 -40 109 -2 40 -8 66 -15 68 -9 3
-13 -46 -15 -204z m150 -33 c55 -34 68 -95 27 -136 -22 -21 -33 -25 -78 -22
l-52 3 -3 88 -3 87 38 0 c21 0 53 -9 71 -20z"/>
<path d="M3557 443 c-3 -4 -6 -100 -8 -212 -3 -186 -2 -205 14 -215 13 -8 20
-8 25 1 10 16 -4 413 -16 425 -5 5 -12 6 -15 1z"/>
<path d="M38 239 c-3 -204 2 -237 33 -227 11 4 13 39 10 195 l-3 190 32 7 c18
3 59 6 92 6 43 0 59 3 56 13 -3 8 -37 13 -111 15 l-106 3 -3 -202z"/>
<path d="M655 398 c-4 -24 -22 -114 -41 -201 -19 -87 -32 -162 -29 -168 18
-29 34 -1 63 109 17 64 34 136 38 160 4 23 10 42 14 42 4 0 20 -47 36 -105
l29 -105 33 0 c24 0 32 5 33 18 0 9 15 62 33 117 l32 100 18 -70 c9 -38 25
-115 34 -170 16 -91 20 -100 41 -103 20 -3 23 0 18 20 -3 12 -20 97 -37 188
-41 207 -42 210 -79 210 -27 0 -29 -4 -45 -67 -27 -109 -48 -175 -52 -170 -3
2 -18 53 -34 112 -29 110 -38 125 -77 125 -17 0 -22 -8 -28 -42z"/>
<path d="M1350 373 c0 -172 -25 -269 -85 -342 l-27 -31 30 0 c67 0 106 90 122
284 5 65 10 119 12 120 2 2 24 1 51 -2 l47 -4 0 -187 c0 -188 4 -211 37 -211
10 0 13 42 13 198 0 108 -3 207 -6 220 -6 21 -11 22 -100 22 l-94 0 0 -67z"/>
<path d="M2267 388 c-7 -76 6 -135 37 -167 22 -22 35 -26 81 -25 l55 0 0 -87
c0 -72 3 -88 17 -93 9 -4 21 -2 26 3 14 14 -3 409 -18 415 -9 3 -14 -22 -18
-91 -3 -52 -8 -97 -10 -100 -3 -2 -23 -7 -44 -10 -59 -8 -84 25 -92 123 -7 92
-26 109 -34 32z"/>
<path d="M2958 243 c-3 -200 1 -233 27 -233 17 0 17 -4 15 118 l-1 92 45 2
c102 4 90 16 96 -102 5 -96 7 -105 24 -105 19 0 20 7 18 155 -4 219 -10 270
-33 270 -17 0 -19 -9 -19 -89 l0 -88 -37 -7 c-83 -13 -90 -11 -97 40 -3 26 -6
69 -6 95 0 36 -4 49 -15 49 -12 0 -15 -32 -17 -197z"/>
</g>
</svg>
