<?xml version="1.0" encoding="utf-8"?>
<!-- Generator: Adobe Illustrator 25.4.1, SVG Export Plug-In . SVG Version: 6.00 Build 0)  -->
<svg version="1.2" baseProfile="tiny" id="Слой_1"
	 xmlns="http://www.w3.org/2000/svg" xmlns:xlink="http://www.w3.org/1999/xlink" x="0px" y="0px"
	 viewBox="0 0 332.6400146 189.5399933" overflow="visible" xml:space="preserve">
<path d="M3.48,7.6199999l-1.86-1.98C5.8999968,2.8000033,9.7999678,1.38,13.3199997,1.38
	c3.0400333,0,5.5000324,1.0999967,7.3800011,3.2999997c1.8799667,2.1600003,2.8199997,4.8400321,2.8199997,8.0400009
	c0,4.0000315-1.360033,6.8200312-4.0799999,8.46c1.9999676,0.3199673,3.4999676,1.519968,4.5,3.6000004
	c1.0000324,2.039999,1.5,4.480032,1.5,7.3199978c0,4.3199997-0.9199677,7.6600304-2.7600002,10.0200005
	S17.7799683,45.6599998,13.5,45.6599998c-2.8800001,0-5.599997-0.6400299-8.1599998-1.9199982
	C2.8199999,42.4600296,1.0399969,40.6199989,0,38.2200012c0.1999997-0.1600304,0.3400003-0.3199692,0.42-0.4799995
	s0.1399997-0.2800331,0.18-0.3600006c0.0400003-0.0799713,0.1399997-0.1800003,0.3-0.2999992
	c0.1999968-0.1600342,0.4999969-0.3400307,0.9-0.5400009c1.7599967,1.600029,3.72,2.8999672,5.8800001,3.8999977
	c2.1600003,0.9600029,4.2000003,1.4400024,6.1200004,1.4400024c2.1599998,0,3.8800325-0.7000313,5.1599989-2.1000023
	c1.3200016-1.4399986,1.9800014-3.6400299,1.9800014-6.5999985c0-3.0400314-0.8599682-5.5000324-2.5799999-7.3800011
	c-1.7200336-1.8799667-4.2600002-2.8199997-7.6200008-2.8199997c-0.4799995,0-1.3199997,0.0400333-2.5199995,0.1200008
	c-0.0400038-0.2399998-0.1399975-0.6799679-0.3000002-1.3199997c-0.1199999-0.6400337-0.2800031-1.6600323-0.48-3.0600014
	c0.4399967-0.0400314,1.2400031-0.0799675,2.4000001-0.1199989c1.1599674-0.0799675,1.9799995-0.1399689,2.46-0.1800003
	c0.4799995-0.0799675,1.1599674-0.1999683,2.04-0.3600006c0.9199677-0.1999664,1.5799675-0.4600315,1.9799995-0.7799988
	c0.4399681-0.3199692,0.8999996-0.7200012,1.3800011-1.2000008c0.520031-0.5200319,0.8800316-1.1800327,1.0799999-1.9799995
	c0.1999664-0.7999678,0.2999992-1.7400007,0.2999992-2.8200006c0-1.9600325-0.6599998-3.3799968-1.9799995-4.2599998
	c-1.2799683-0.9199967-3-1.3800001-5.1600008-1.3800001C9.0600004,5.6399999,6.2399998,6.3000002,3.48,7.6199999z
	 M30.3600006,25.0799999c0-1.360033,0-2.3800316,0-3.0599995c0-0.7200012,0.0199661-1.8000011,0.0599995-3.2399998
	c0.0799675-1.4400005,0.1600323-2.5799999,0.2399998-3.420001c0.1200008-0.8399992,0.2800312-1.9200001,0.4799995-3.2399998
	c0.1999702-1.3600321,0.4600315-2.440032,0.7800007-3.2399998C32.2399712,8.04,32.599968,7.099997,33,6.0599999
	c0.4399681-1.0399971,0.979969-1.8799968,1.6199989-2.52s1.3399696-1.2400033,2.1000023-1.8
	C37.4800301,1.14,38.3800316,0.7000031,39.4199982,0.42C40.4599686,0.1399968,41.599968,0,42.8400002,0
	c2.479969,0,4.6399689,0.4999968,6.4799995,1.5c1.8400307,0.96,3.2800293,2.179997,4.3199997,3.6599998
	S55.5,8.46,56.0999985,10.6199999c0.6400337,2.1599998,1.0399704,4.2199678,1.2000008,6.1799994
	c0.1999702,1.9600334,0.2999992,4.1200333,0.2999992,6.4800014c0,1.6000309-0.0400276,3.0400314-0.1199989,4.3199997
	c-0.0400314,1.2799664-0.1600304,2.7400303-0.3600006,4.3799992c-0.1600304,1.6000328-0.4199982,3.0199699-0.7799988,4.2600021
	c-0.3199692,1.2400284-0.7799988,2.5000305-1.3800011,3.7799988c-0.5999985,1.2400284-1.3199997,2.2799988-2.1599998,3.1199989
	c-0.7999687,0.7999687-1.8199692,1.4599686-3.0599976,1.9799995c-1.2400322,0.520031-2.6200333,0.7800026-4.1400032,0.7800026
	c-2.479969,0-4.6199989-0.3000031-6.4199982-0.9000015c-1.7599716-0.5999985-3.2200317-1.4399986-4.3800011-2.5200005
	c-1.1200294-1.079998-2.020031-2.5000305-2.7000008-4.2599983c-0.6400299-1.7599716-1.099968-3.6799698-1.3799992-5.7600021
	C30.4799995,30.3799686,30.3600006,27.9199677,30.3600006,25.0799999z M53.2799988,25.5599995
	c0-1.9600315-0.1600304-4.0000324-0.4799995-6.1199989c-0.2800293-2.1199684-0.7799988-4.3999681-1.5-6.8400002
	C50.6200294,10.1599674,49.5199699,8.1799965,48,6.6599998c-1.5199699-1.5599999-3.3400307-2.3399997-5.4599991-2.3399997
	c-1.6000328,0-3.0199699,1.0799999-4.2600021,3.2399998c-1.1999969,2.1199679-2.059967,4.5199676-2.579998,7.2000003
	c-0.520031,2.6399994-0.7800026,5.1400318-0.7800026,7.5c0,1.639967,0,2.8999672,0,3.7800007
	c0.0400314,0.8399982,0.1200027,2.059967,0.2400017,3.6599998c0.1199989,1.5599995,0.2800293,2.8000298,0.4799995,3.7199974
	c0.2400017,0.9199715,0.6000023,1.9800034,1.0800018,3.1800003c0.4799995,1.2000008,1.0399666,2.1400337,1.6800003,2.8199997
	c0.6799698,0.6400337,1.5400276,1.2199707,2.579998,1.7400017c1.0800018,0.4799995,2.2799988,0.7399712,3.6000023,0.7799988
	c2.9200287-0.1600304,5.0999985-1.7999992,6.5399971-4.9199982C52.5600014,33.9000015,53.2799988,30.0799694,53.2799988,25.5599995z
	 M56.8199997,50.8199997l-1.7399979-3.1199989c2.2000275-1.4800301,4.079998-3.1800003,5.6399994-5.1000023
	c1.5599976-1.9600296,2.7799644-3.8999977,3.659996-5.8199997c0.8800354-1.9600296,1.5799713-4.1800308,2.1000061-6.6599979
	c0.5200272-2.479969,0.8399963-4.7599678,0.9599991-6.8400002c0.1600342-2.1199684,0.2399979-4.5600014,0.2399979-7.3200006
	c0-1.4399996,0.0400314-3.6599998,0.1200027-6.6599998c0.1199951-3.0400033,0.1800003-5.3599968,0.1800003-6.96
	c1.1599655-0.1999967,2.9399948-0.3,5.3399963-0.3c1.0000381,0,2.5199966,0.0400033,4.5599976,0.1200001
	C79.9199982,2.2000034,81.4600372,2.22,82.5,2.22c1.9199982,0,3.6799622-0.0799968,5.2799988-0.24
	C88.2600021,4.6600032,88.5,8.8600321,88.5,14.5799999c0,1.519968-0.0199661,3.9199677-0.0599976,7.2000008
	c-0.0400391,3.2399998-0.0600052,5.6999989-0.0600052,7.3799992c0,6.5599709,0.2800369,11.9599686,0.840004,16.2000008
	c-0.3600006,1.2400284-1.0399704,1.8600006-2.0400009,1.8600006c-0.7200012,0-1.4200363-0.3000031-2.0999985-0.9000015
	c-0.6799698-0.5599709-1.099968-1.2599983-1.2600021-2.0999985c0.0799637-3.1200027,0.1200027-5.5000305,0.1200027-7.1399994
	c0-2.320034-0.0600052-5.9599705-0.1800003-10.920002c-0.0799713-4.9600315-0.1200027-8.8000317-0.1200027-11.5199995
	c0-3.6799679,0.0400314-6.4200001,0.1200027-8.2200003c-0.9599991-0.0799971-2.6200333-0.139997-4.9800034-0.1800003
	c-2.3599625-0.0400028-4.1599655-0.1399965-5.4000015-0.2999997c-0.3600006,2.0800033-0.659996,4.7999997-0.8999939,8.1599998
	c-0.1999664,3.3199673-0.3799667,6.2800312-0.5400009,8.8799992C71.8199997,25.5400314,71.4599991,28.3799992,70.8600006,31.5
	c-0.559967,3.0799713-1.3399658,5.7599983-2.340004,8.0400009c-0.9599991,2.2799988-2.440033,4.4399986-4.4399948,6.4799995
	C62.1199646,48.100029,59.7000008,49.6999702,56.8199997,50.8199997z M94.1999969,25.0799999c0-1.360033,0-2.3800316,0-3.0599995
	c0-0.7200012,0.0199661-1.8000011,0.0600052-3.2399998c0.0799637-1.4400005,0.1600342-2.5799999,0.2399979-3.420001
	c0.1200027-0.8399992,0.2800369-1.9200001,0.4800034-3.2399998c0.1999588-1.3600321,0.4600296-2.440032,0.7799988-3.2399998
	C96.0796814,8.04,96.439682,7.099997,96.8399963,6.0599999c0.439682-1.0399971,0.9801636-1.8799968,1.6195221-2.52
	c0.6403198-0.6400032,1.3401642-1.2400033,2.1004791-1.8c0.7603226-0.6,1.6598358-1.0399969,2.6995163-1.3200001
	C104.3001633,0.1399968,105.439682,0,106.6800003,0c2.4796829,0,4.639679,0.4999968,6.4800034,1.5
	c1.8403168,0.96,3.2803192,2.179997,4.3199997,3.6599998s1.8595123,3.3000002,2.4604797,5.46
	c0.6393509,2.1599998,1.0396805,4.2199678,1.1999969,6.1799994c0.1996841,1.9600334,0.2995224,4.1200333,0.2995224,6.4800014
	c0,1.6000309-0.0403214,3.0400314-0.1200027,4.3199997c-0.0403214,1.2799664-0.1603165,2.7400303-0.3600006,4.3799992
	c-0.1603165,1.6000328-0.4204788,3.0199699-0.7795181,4.2600021c-0.3206482,1.2400284-0.7804794,2.5000305-1.3804779,3.7799988
	c-0.6000061,1.2400284-1.3199997,2.2799988-2.1600037,3.1199989c-0.7996826,0.7999687-1.8201599,1.4599686-3.0604858,1.9799995
	c-1.2393494,0.520031-2.6198349,0.7800026-4.1395111,0.7800026c-2.4796829,0-4.6195221-0.3000031-6.4204865-0.9000015
	c-1.7596817-0.5999985-3.2198334-1.4399986-4.3795166-2.5200005c-1.1203156-1.079998-2.0198364-2.5000305-2.6999969-4.2599983
	c-0.6400375-1.7599716-1.099968-3.6799698-1.3800049-5.7600021C94.3199997,30.3799686,94.1999969,27.9199677,94.1999969,25.0799999z
	 M117.1200027,25.5599995c0-1.9600315-0.1603241-4.0000324-0.4800034-6.1199989
	c-0.2803192-2.1199684-0.7795181-4.3999681-1.4995193-6.8400002c-0.6806412-2.440033-1.7807999-4.4200039-3.3004837-5.9400005
	c-1.5196762-1.5599999-3.3398361-2.3399997-5.4604797-2.3399997c-1.59935,0-3.0191956,1.0799999-4.2595139,3.2399998
	c-1.2000046,2.1199679-2.0601654,4.5199676-2.5795212,7.2000003c-0.5203171,2.6399994-0.7804794,5.1400318-0.7804794,7.5
	c0,1.639967,0,2.8999672,0,3.7800007C98.8003235,26.8799992,98.8799973,28.099968,99,29.7000008
	c0.1200027,1.5599995,0.2803192,2.8000298,0.4800034,3.7199974c0.2399979,0.9199715,0.5999985,1.9800034,1.0799942,3.1800003
	c0.4800034,1.2000008,1.0396805,2.1400337,1.6800003,2.8199997c0.6796799,0.6400337,1.5398407,1.2199707,2.5804825,1.7400017
	c1.0790329,0.4799995,2.2790375,0.7399712,3.6000061,0.7799988c2.9193497-0.1600304,5.0995102-1.7999992,6.5395126-4.9199982
	S117.1200027,30.0799694,117.1200027,25.5599995z M121.1999969,4.9200001l-0.5999985-2.7L143.5200043,0.9
	c1.0003204,0.0400032,1.8403168,0.4000033,2.519989,1.08s1.0204926,1.4200029,1.0204926,2.2199998
	c0,0.5200033-0.2006378,0.9799972-0.6009674,1.3800001c-0.3993683,0.400003-0.9993591,0.6400032-1.7990417,0.7200003
	l-10.0799866-0.54c0.9993591,14.1199665,1.7395172,26.9599705,2.2195129,38.5199966
	c-0.3600006,1.2000008-1.0396729,1.8000031-2.0400085,1.8000031c-0.7200012,0-1.4198456-0.3000031-2.0995178-0.9000015
	c-0.6806335-0.5599709-1.1001434-1.2600021-1.2604828-2.0999985c0.0796814-2.1600037,0.1200104-5.440033,0.1200104-9.8400002
	c0-1.6399708-0.0201569-4.0999699-0.0595245-7.3800011c0-3.2800331,0-5.7400322,0-7.3800011
	c0-4.7599669,0.0796814-9.0599995,0.2400055-12.8999996C127.1798401,5.2600031,123.6796722,5.04,121.1999969,4.9200001z
	 M147.4195099,25.0799999c0-1.360033,0-2.3800316,0-3.0599995c0-0.7200012,0.0201569-1.8000011,0.0604858-3.2399998
	c0.0796814-1.4400005,0.1603241-2.5799999,0.2400055-3.420001c0.1199951-0.8399992,0.2803192-1.9200001,0.4799957-3.2399998
	c0.1996765-1.3600321,0.4598541-2.440032,0.7804871-3.2399998c0.3196716-0.8400002,0.6796722-1.7800031,1.0790253-2.8200002
	c0.4406433-1.0399971,0.9801636-1.8799968,1.6204834-2.52c0.6403351-0.6400032,1.3401642-1.2400033,2.1004944-1.8
	c0.7593536-0.6,1.6598358-1.0399969,2.6995087-1.3200001S158.6601562,0,159.8995209,0
	c2.4806366,0,4.6406403,0.4999968,6.4799957,1.5c1.840332,0.96,3.2803345,2.179997,4.3200073,3.6599998
	c1.0406342,1.4800034,1.8604736,3.3000002,2.4604797,5.46c0.6403198,2.1599998,1.0396729,4.2199678,1.1999969,6.1799994
	c0.1996765,1.9600334,0.3004761,4.1200333,0.3004761,6.4800014c0,1.6000309-0.0403137,3.0400314-0.1209564,4.3199997
	c-0.0393677,1.2799664-0.1593628,2.7400303-0.3590393,4.3799992c-0.1603241,1.6000328-0.4204865,3.0199699-0.7804871,4.2600021
	c-0.3196716,1.2400284-0.7804718,2.5000305-1.3795166,3.7799988c-0.6009674,1.2400284-1.3209534,2.2799988-2.1599884,3.1199989
	c-0.8006439,0.7999687-1.8201599,1.4599686-3.0604858,1.9799995s-2.6198425,0.7800026-4.1395264,0.7800026
	c-2.4806366,0-4.6204834-0.3000031-6.4204712-0.9000015c-1.7596741-0.5999985-3.2198486-1.4399986-4.3795166-2.5200005
	c-1.1203308-1.079998-2.020813-2.5000305-2.7004852-4.2599983c-0.6403351-1.7599716-1.1001587-3.6799698-1.3795166-5.7600021
	C147.5404816,30.3799686,147.4195099,27.9199677,147.4195099,25.0799999z M170.3404846,25.5599995
	c0-1.9600315-0.1603241-4.0000324-0.4799957-6.1199989c-0.2803345-2.1199684-0.7804871-4.3999681-1.5004883-6.8400002
	c-0.6796722-2.440033-1.7798462-4.4200039-3.2995148-5.9400005c-1.5206451-1.5599999-3.3408203-2.3399997-5.4604797-2.3399997
	c-1.6003265,0-3.0201569,1.0799999-4.2604828,3.2399998c-1.2000122,2.1199679-2.0591888,4.5199676-2.5795288,7.2000003
	c-0.5203247,2.6399994-0.7804718,5.1400318-0.7804718,7.5c0,1.639967,0,2.8999672,0,3.7800007
	c0.0403137,0.8399982,0.1209564,2.059967,0.2399902,3.6599998c0.1209717,1.5599995,0.2803345,2.8000298,0.480011,3.7199974
	c0.2399902,0.9199715,0.6009521,1.9800034,1.0809631,3.1800003c0.4799957,1.2000008,1.0396729,2.1400337,1.6799927,2.8199997
	c0.6796722,0.6400337,1.5398407,1.2199707,2.5795135,1.7400017c1.0800018,0.4799995,2.280014,0.7399712,3.6000061,0.7799988
	c2.9203339-0.1600304,5.1004791-1.7999992,6.5404816-4.9199982S170.3404846,30.0799694,170.3404846,25.5599995z
	 M202.3795166,42.4799995l0.6009674,2.7000008c-1.5609741,0-4.4006348,0.0600014-8.5209656,0.1800003
	c-4.0800018,0.1600304-7.0396729,0.2399979-8.8800049,0.2399979c-2.959671,0-4.9795074-0.1399689-6.0595093-0.4199982
	c0.4003296-4.399971,0.6403198-11.7600021,0.7200012-22.0799999C180.3196716,12.7799997,180.5798492,5.5799999,181.019516,1.5
	c1.360321,0.12,4.9603271,0.2200032,10.8000031,0.3c5.8809662,0.0799968,9.7209625,0.2599967,11.5200043,0.54L204,5.04
	c-1.8000031,0.3199968-5.3999939,0.7000031-10.8000031,1.1399999c-5.3999939,0.4399972-8.2396698,0.679997-8.5200043,0.7200003
	c0.040329,0.9199967,0.1200104,2.8000321,0.2400055,5.6399999c0.1603241,2.8399677,0.2601624,5.1799669,0.3004913,7.0199995
	c1.3593597,0.1600323,3.8399963,0.400032,7.4399872,0.7200012c3.6000061,0.2800312,5.8790436,0.4600315,6.839035,0.539999
	l0.6009674,2.7600002c-8.4403229,0.7600327-13.3804779,1.1599674-14.8204803,1.2000008
	c0,1.7599678-0.040329,4.4399986-0.1199951,8.039999c-0.040329,3.5599709-0.0604858,6.1800003-0.0604858,7.8600006
	C194.2598419,41.5200005,200.0198364,42.1199989,202.3795166,42.4799995z M31.2000008,112.0199966l0.1799984,2.2800064
	c-2.1199665,0.6403198-4.1399994,0.9599991-6.0599995,0.9599991c-1.8400326,0-3.4200001-0.5001678-4.7399998-1.4995193
	c-1.2799683-0.9599991-2.2600327-2.1801605-2.9400005-3.6604843c-0.6400318-1.4803162-1.3000317-3.0796814-1.9799995-4.7999954
	c-0.6400318-1.7203217-1.2600002-3.3196869-1.8599997-4.8000031c-0.559968-1.4803162-1.3999681-2.7004852-2.5200005-3.6604843
	c-1.1200323-0.9993515-2.46-1.4995193-4.0199995-1.4995193l0.5999999,17.640007
	C7.5,114.2203217,6.7999969,114.8395157,5.7600002,114.8395157c-0.7200003,0-1.4200034-0.2995148-2.1000001-0.8995132
	c-0.6400034-0.6000061-1.0399969-1.3199997-1.2-2.1600037C2.5000033,110.9400024,2.6400001,104.1796799,2.8800001,91.5
	C3.1199999,78.7799988,3.3,71.4199677,3.4200001,69.4199982l2.6999998,0.5999985
	C6.1600032,71.5399628,6.2800031,74.4000015,6.48,78.5999985c0.1999969,4.1599655,0.3199968,6.9799652,0.3600001,8.4599991
	c1.7200031-0.0400314,3.1800003-0.6799622,4.3800001-1.9199982c1.2400322-1.2799683,2.2399673-2.8199997,3-4.6200027
	c0.7999678-1.7999954,1.6000319-3.5800323,2.4000006-5.3399963c0.7999668-1.8000031,1.8400307-3.3199692,3.1199989-4.5599976
	c1.3199997-1.2799683,2.8800011-1.9200058,4.6800003-1.9200058c1.360033,0,3.6599998,0.3000031,6.8999996,0.9000015L30.7199993,72
	c-2.4799671-0.400032-3.8999996-0.5999985-4.2600002-0.5999985c-1.3999672,0-2.5799999,0.5800323-3.539999,1.7399979
	c-0.960001,1.1599655-1.7599678,2.6200333-2.3999996,4.3799973c-0.6400337,1.7200394-1.3399677,3.4999695-2.1000004,5.340004
	c-0.7600327,1.8000031-1.8799686,3.4600372-3.3599997,4.9799957c-1.4800329,1.5199661-3.3000002,2.5399704-5.46,3.0600052
	c1.9200001,0.4399643,3.5800323,1.3000336,4.9799995,2.5800018c1.3999681,1.2799606,2.440033,2.7201614,3.1200008,4.3195114
	c0.679966,1.6003189,1.3399677,3.3004837,1.9799995,5.1004868c0.6400318,1.7596817,1.1999989,3.3600006,1.6800003,4.7999954
	c0.4799995,1.4400024,1.1399994,2.6399994,1.9799995,3.6000061c0.8800316,0.9599991,1.9399681,1.4399948,3.1800003,1.4399948
	C27.7199993,112.7399979,29.2800007,112.5,31.2000008,112.0199966z M30.8999996,93.2399979c0-1.3600311,0-2.3800354,0-3.0599976
	c0-0.7200012,0.0199699-1.8000031,0.0599995-3.2399979c0.0799713-1.4400024,0.1600323-2.5800018,0.2400017-3.4200058
	c0.1199989-0.8399963,0.2800293-1.9199982,0.4799995-3.2399979c0.1999683-1.3600311,0.4600296-2.440033,0.7799988-3.2399979
	c0.3199692-0.840004,0.6799698-1.7800369,1.0800018-2.8199997c0.4399681-1.0399704,0.979969-1.8799667,1.6199989-2.5200043
	c0.6400299-0.6400299,1.3399696-1.2400284,2.0999985-1.7999954c0.7600327-0.5999985,1.6600304-1.0399704,2.7000008-1.3199997
	c1.0399704-0.2800369,2.1799698-0.4199982,3.420002-0.4199982c2.479969,0,4.6399689,0.4999619,6.4799995,1.5
	c1.8400307,0.9599991,3.2800293,2.1799622,4.3199997,3.659996s1.8600006,3.3000031,2.4599991,5.4599991
	c0.6400299,2.1600037,1.0399704,4.2199707,1.2000008,6.1800003c0.1999702,1.9600372,0.2999992,4.1200333,0.2999992,6.4800034
	c0,1.600029-0.0400314,3.0400314-0.1199989,4.3204803c-0.0400314,1.2796783-0.1600304,2.7398376-0.3600006,4.3795166
	c-0.1600304,1.6003189-0.4199982,3.0201645-0.7799988,4.2604828c-0.3199692,1.239357-0.7800026,2.4998398-1.3800011,3.7795181
	c-0.5999985,1.2403183-1.3199997,2.2799988-2.1599998,3.1200027c-0.7999687,0.799675-1.8199692,1.4601593-3.0600014,1.980484
	c-1.2400284,0.5193481-2.6200294,0.7795105-4.1399994,0.7795105c-2.479969,0-4.6199989-0.2995148-6.4199982-0.9004822
	c-1.7599716-0.5990295-3.2200317-1.4400024-4.3800011-2.5190353c-1.1200294-1.0809631-2.020031-2.5008011-2.7000008-4.2604828
	c-0.6400299-1.7596741-1.099968-3.6796799-1.3799992-5.7599945C31.0200005,98.5396805,30.8999996,96.080162,30.8999996,93.2399979z
	 M53.8199997,93.7200012c0-1.9600372-0.1600304-4.0000381-0.4799995-6.1200027
	c-0.2800293-2.1199646-0.7799988-4.3999634-1.5-6.8399963c-0.6799698-2.440033-1.7800293-4.4200363-3.2999992-5.9400024
	c-1.5199699-1.5599976-3.3400307-2.3399963-5.4599991-2.3399963c-1.6000328,0-3.0199699,1.0799942-4.2600021,3.2399979
	c-1.2000008,2.1199646-2.0599709,4.5199661-2.579998,7.1999969c-0.520031,2.6399994-0.7800026,5.1400375-0.7800026,7.5
	c0,1.6399689,0,2.899971,0,3.7799988c0.0400314,0.840004,0.1200027,2.0596848,0.2400017,3.6600037
	c0.1199989,1.5599976,0.2800293,2.8003159,0.4799995,3.7200012c0.2399979,0.9196777,0.5999985,1.9795151,1.079998,3.179512
	c0.4800034,1.2000046,1.0399704,2.1408081,1.6800003,2.820488c0.6799698,0.6403198,1.5400314,1.2201614,2.5800018,1.7395172
	c1.079998,0.4799957,2.2799988,0.7401581,3.5999985,0.7804794c2.9200325-0.1603165,5.1000023-1.7999954,6.5400009-4.9199982
	S53.8199997,98.2401657,53.8199997,93.7200012z M57.3600006,118.9800034l-1.7400017-3.1200027
	c2.2000313-1.4803238,4.0800018-3.180481,5.6399994-5.1004868c1.5600014-1.9593506,2.7799644-3.8995132,3.6599998-5.8195114
	c0.8800354-1.9603195,1.5799713-4.1798401,2.0999985-6.6604843c0.5200348-2.4796829,0.840004-4.7594833,0.9600067-6.8395157
	c0.1600342-2.1199646,0.2399979-4.5600052,0.2399979-7.3199997c0-1.4400024,0.0400314-3.6600037,0.1199951-6.6600037
	c0.1200027-3.0400314,0.1800003-5.3599625,0.1800003-6.9599991c1.1599655-0.1999664,2.9400024-0.3000031,5.340004-0.3000031
	c1.0000305,0,2.5199966,0.0400391,4.5599976,0.1200027c2.0400009,0.0400314,3.5800323,0.0599976,4.6200027,0.0599976
	c1.9199982,0,3.6799622-0.0799637,5.2799988-0.2399979c0.4800034,2.6800385,0.7200012,6.8800354,0.7200012,12.5999985
	c0,1.5199661-0.0199661,3.9199677-0.0599976,7.2000046c-0.0400391,3.2399979-0.0600052,5.6995163-0.0600052,7.3795166
	c0,6.5606461,0.2800369,11.9606476,0.840004,16.2009659c-0.3600006,1.2393494-1.0399704,1.8595123-2.0400009,1.8595123
	c-0.7200012,0-1.4200363-0.3004837-2.0999985-0.8995132c-0.6799698-0.5606461-1.099968-1.2604828-1.2600021-2.1004868
	c0.0799637-3.1199951,0.1200027-5.4998322,0.1200027-7.14048c0-2.3193512-0.0600052-5.9596786-0.1800003-10.9195175
	c-0.0799713-4.9600372-0.1200027-8.8000336-0.1200027-11.5199966c0-3.6799698,0.0400314-6.4200058,0.1200027-8.2200012
	c-0.9600067-0.0799713-2.6200409-0.1399689-4.9800034-0.1800003c-2.3599625-0.0400391-4.1599655-0.1399689-5.4000015-0.3000031
	c-0.3600006,2.0800323-0.659996,4.8000031-0.9000015,8.1600037c-0.1999588,3.3199615-0.3799591,6.2800293-0.5399933,8.8799973
	C72.3600006,93.7000351,72,96.5400009,71.4000015,99.6600037c-0.559967,3.0796738-1.3399658,5.7599945-2.340004,8.0399933
	c-0.9599991,2.2800064-2.440033,4.4400024-4.4399948,6.4800034
	C62.6599655,116.2603226,60.2400017,117.8596802,57.3600006,118.9800034z M95.5199966,69.2399979l2.6995163,0.5999985
	C98.2598343,70.6000366,98.5199966,76.5799637,99,87.7799988c1.0800018-0.1600342,2.2799988-0.2399979,3.5999985-0.2399979
	c5.2799988,0,9.5999985,1.5,12.9599991,4.5c3.3600006,2.9599686,5.0400009,6.4401627,5.0400009,10.4404831
	c0,8.1196823-5.0198364,12.1795197-15.0595169,12.1795197c-2.600647,0-4.980484-0.1996841-7.14048-0.6000061
	c-2.1600037-0.4003143-3.400032-0.9004822-3.7200012-1.4995117c0.1200027-3.3600006,0.2200317-10.1606522,0.3000031-20.4004822
	C95.059967,81.8800354,95.2399673,74.2399673,95.5199966,69.2399979z M99.3004837,92.2799988
	c0.2793503,8.5204849,0.4800034,14.1998367,0.5990295,17.0395203c2.7609711,0.3609619,5.1801682,0.5404816,7.2604904,0.5404816
	c5.599678,0,8.3999939-2.6601639,8.3999939-7.980484c0-2.7590332-1.1999969-5.0793533-3.5999985-6.9595184
	c-2.3596802-1.9199982-5.4796829-2.8799973-9.3600006-2.8799973
	C101.4000015,92.0400009,100.2998352,92.1199646,99.3004837,92.2799988z M151.8604889,121.3799973h-2.7609711
	c-0.1996765-0.7199936-0.6595154-3.4003143-1.3795166-8.0400009c-2.8396759,0.3196869-7.3401642,0.4800034-13.5004883,0.4800034
	c-4.8393555,0-8.159996-0.0998383-9.9590302-0.2995148c0.1190338-4.3199997,0.3196716-11.6803207,0.5990372-22.0804825
	c0.2803268-10.399971,0.4799957-17.7600021,0.6009598-22.0800018l2.6995239,0.5999985
	C128.2799988,74.1600037,128.4403229,80.8399658,128.6399994,90c0.2400055,9.1204834,0.4204865,15.6801605,0.5395203,19.680481
	c1.8009644,0,3.3600006,0.0393524,4.6809692,0.1190338c1.3190308,0.0403214,2.0198364,0.0604858,2.0995178,0.0604858
	c0.6403198,0,3.0201569-0.3398361,7.1395111-1.0204849c0.1603241-4.3199997,0.4204865-10.9996796,0.7804871-20.0395126
	c0.4003296-9.0799713,0.6595154-15.559967,0.7804718-19.4400024l2.6995239,0.5999985
	c-0.040329,2.8399658-0.0595245,7.099968-0.0595245,12.7799988c0,7.6800003,0.0595245,15.6998367,0.1795197,24.0604858
	c0,0.1996765,0,0.5193558,0,0.9599991c0.040329,0.399353,0.0604858,0.6998367,0.0604858,0.8995209
	c0.4799957,0,1.2998505,0.0403137,2.4595184,0.1199951c1.159668,0.0403214,2.1004791,0.0595169,2.8204803,0.0595169
	c0,0.1603241-0.1008148,1.8806458-0.3004761,5.160965C152.3596802,117.2798386,152.1398468,119.7403183,151.8604889,121.3799973z
	 M153.6595154,93.2399979c0-1.3600311,0-2.3800354,0-3.0599976c0-0.7200012,0.0201569-1.8000031,0.0604858-3.2399979
	c0.0796661-1.4400024,0.1603241-2.5800018,0.2400055-3.4200058c0.1199951-0.8399963,0.2803192-1.9199982,0.4799957-3.2399979
	c0.1996765-1.3600311,0.4598389-2.440033,0.7804871-3.2399979c0.3196716-0.840004,0.6796722-1.7800369,1.0790253-2.8199997
	c0.4406433-1.0399704,0.9801636-1.8799667,1.6204834-2.5200043c0.6403351-0.6400299,1.3401642-1.2400284,2.1004791-1.7999954
	c0.7593689-0.5999985,1.6598511-1.0399704,2.6995239-1.3199997c1.0396729-0.2800369,2.1801605-0.4199982,3.4195099-0.4199982
	c2.4806519,0,4.6406403,0.4999619,6.480011,1.5c1.8403168,0.9599991,3.2803192,2.1799622,4.3199921,3.659996
	c1.0406494,1.4800339,1.8604889,3.3000031,2.4604797,5.4599991c0.6403351,2.1600037,1.0396729,4.2199707,1.2000122,6.1800003
	c0.1996613,1.9600372,0.3004761,4.1200333,0.3004761,6.4800034c0,1.600029-0.040329,3.0400314-0.1209717,4.3204803
	c-0.0393524,1.2796783-0.1593475,2.7398376-0.359024,4.3795166c-0.1603241,1.6003189-0.4204865,3.0201645-0.7804871,4.2604828
	c-0.3196716,1.239357-0.7804871,2.4998398-1.3795166,3.7795181c-0.6009674,1.2403183-1.3209686,2.2799988-2.1600037,3.1200027
	c-0.8006287,0.799675-1.8201447,1.4601593-3.0604858,1.980484c-1.2403259,0.5193481-2.6198425,0.7795105-4.1395111,0.7795105
	c-2.4806366,0-4.6204834-0.2995148-6.4204865-0.9004822c-1.7596741-0.5990295-3.2198334-1.4400024-4.3795166-2.5190353
	c-1.1203156-1.0809631-2.020813-2.5008011-2.7004852-4.2604828c-0.6403198-1.7596741-1.1001434-3.6796799-1.3795166-5.7599945
	C153.7804871,98.5396805,153.6595154,96.080162,153.6595154,93.2399979z M176.5804901,93.7200012
	c0-1.9600372-0.1603394-4.0000381-0.480011-6.1200027c-0.2803192-2.1199646-0.7804718-4.3999634-1.500473-6.8399963
	c-0.6796722-2.440033-1.7798462-4.4200363-3.29953-5.9400024c-1.5206299-1.5599976-3.3408051-2.3399963-5.4604797-2.3399963
	c-1.6003265,0-3.0201569,1.0799942-4.2604828,3.2399979c-1.1999969,2.1199646-2.0591888,4.5199661-2.5795135,7.1999969
	c-0.5203247,2.6399994-0.7804871,5.1400375-0.7804871,7.5c0,1.6399689,0,2.899971,0,3.7799988
	c0.040329,0.840004,0.1209717,2.0596848,0.2400055,3.6600037c0.1209717,1.5599976,0.2803192,2.8003159,0.4799957,3.7200012
	c0.2400055,0.9196777,0.6009674,1.9795151,1.0809631,3.179512c0.480011,1.2000046,1.0396729,2.1408081,1.6800079,2.820488
	c0.6796722,0.6403198,1.5398407,1.2201614,2.5795135,1.7395172c1.0800018,0.4799957,2.2799988,0.7401581,3.6000061,0.7804794
	c2.9203186-0.1603165,5.1004791-1.7999954,6.5404816-4.9199982S176.5804901,98.2401657,176.5804901,93.7200012z
	 M25.2000008,138.5399933l0.5999985,2.6995239c-1.7599678,0.1209717-4.8400307,0.3206329-9.2399998,0.6009674
	c-4.3999672,0.2400055-7.4800024,0.4396667-9.2399998,0.5990295c0.1199999,3.8006439,0.1999969,10.1606445,0.2399998,19.0809631
	c0.0400033,8.9193726,0.139997,15.4598541,0.3000002,19.6195221C7.5,182.3803253,6.7999969,182.9995117,5.7600002,182.9995117
	c-0.7200003,0-1.4200034-0.2995148-2.1000001-0.8995056c-0.6400034-0.6000061-1.0399969-1.3200073-1.2-2.1600037
	c0.4399967-5.0400085,0.72-16.8201599,0.8399999-35.3404846c0-0.6796722,0-1.7193604,0-3.1199951
	c0.0400033-1.3996735,0.0599999-2.4998474,0.0599999-3.29953c2.1600001,0.1200104,4.3399973,0.1795197,6.54,0.1795197
	c0.8800325,0,2.2000332,0,3.96,0c1.7599678-0.0393524,3.0799685-0.0595093,3.96-0.0595093
	C20.5399685,138.3000031,22.9999676,138.3796692,25.2000008,138.5399933z M28.3199997,161.3995209
	c0-1.3593597,0-2.3798523,0-3.0595245c0-0.7200012,0.019968-1.8000031,0.0599995-3.2399902
	c0.0799694-1.4400024,0.1600323-2.5804901,0.2400017-3.4195251c0.1199989-0.8409576,0.2800312-1.9199982,0.4799995-3.2409668
	c0.1999664-1.3593597,0.4600315-2.4393616,0.7799988-3.2390289c0.3199692-0.8409729,0.6799679-1.7808075,1.0799999-2.8204803
	c0.43997-1.0396729,0.9799709-1.8796844,1.6200027-2.5200043c0.6400299-0.6403351,1.3399658-1.2403259,2.0999985-1.8000031
	c0.7600288-0.5999908,1.6600304-1.0396729,2.7000008-1.3199921c1.0399666-0.2803345,2.1799698-0.4195251,3.4199982-0.4195251
	c2.479969,0,4.6399689,0.4991913,6.4799995,1.499527c1.8400307,0.9599915,3.2800331,2.1801453,4.3199997,3.6595154
	c1.0399704,1.4803162,1.8600006,3.3004761,2.4600029,5.4604797c0.6400299,2.1600037,1.0399666,4.2201538,1.1999969,6.180481
	c0.1999702,1.9593658,0.3000031,4.1193542,0.3000031,6.4799957c0,1.5993652-0.0400314,3.0393677-0.1200027,4.3200073
	c-0.0400276,1.2796631-0.1600304,2.7398376-0.3599968,4.3795166c-0.1600342,1.6003265-0.420002,3.0201569-0.7800026,4.2604828
	c-0.3199692,1.2393646-0.7799988,2.4998474-1.3800011,3.7795105c-0.5999985,1.2403259-1.3199997,2.2799988-2.1599998,3.1200104
	c-0.7999687,0.7996674-1.8199692,1.460144-3.0599976,1.980484c-1.2400322,0.5193481-2.6200294,0.7795105-4.1399994,0.7795105
	c-2.479969,0-4.6200027-0.2995148-6.420002-0.9004822c-1.7599678-0.5990295-3.2200317-1.4400024-4.3800011-2.519043
	c-1.1200294-1.0809631-2.0200291-2.5008087-2.6999989-4.2604828c-0.6400318-1.7596588-1.099968-3.6796722-1.3799992-5.7599945
	C28.4400005,166.6996765,28.3199997,164.2401581,28.3199997,161.3995209z M51.2400017,161.8795166
	c0-1.9593658-0.1600304-3.9993591-0.4800034-6.1190338c-0.2800293-2.120636-0.7799988-4.4006348-1.5-6.8409729
	c-0.679966-2.4393463-1.7800293-4.4198303-3.2999992-5.9395142c-1.5199699-1.5599976-3.3400307-2.3395081-5.4599991-2.3395081
	c-1.600029,0-3.0199699,1.0790253-4.2599983,3.2390289c-1.2000008,2.120636-2.0599709,4.5206451-2.5800018,7.1999969
	c-0.520031,2.6399994-0.7799988,5.1408081-0.7799988,7.5004883c0,1.6396637,0,2.9001617,0,3.7795105
	c0.0400276,0.8409729,0.1199989,2.0601654,0.2399979,3.6604919c0.1200027,1.5599976,0.2800331,2.8003235,0.4799995,3.7200012
	c0.2400017,0.9196625,0.6000023,1.9795074,1.0800018,3.1795044c0.4799995,1.2000122,1.0399704,2.1408234,1.6800003,2.8204956
	c0.6799698,0.6403198,1.5400314,1.2201538,2.579998,1.7395172c1.0800018,0.4799957,2.2800026,0.7401428,3.6000023,0.7804718
	c2.9200287-0.1603241,5.0999985-1.7999878,6.5400009-4.9199982
	C50.5200005,170.2200012,51.2400017,166.4001617,51.2400017,161.8795166z M102.1200027,181.5l-4.5600052,0.4204865
	c-2.2000351-13.8009644-4.5799637-25.6204834-7.1399994-35.4604797c-1.3199997,3.1199951-2.7799606,7.5196686-4.3799973,13.1999969
	c-1.5599976,5.6399994-2.6399994,9.3004761-3.2399979,10.980484c-0.0799713,0-0.2200394,0.0191803-0.4200058,0.0595093
	c-0.1600342,0-0.2999954,0-0.4199982,0c-0.559967,0-1.4800339-0.0595093-2.7600021-0.180481
	c-1.2799606-0.1190338-2.0999985-0.1795197-2.4599991-0.1795197c-0.0400314-1.159668-1.0600357-5.0198364-3.0599976-11.5804749
	c-1.9999695-6.5990448-3.1999664-10.8191986-3.5999985-12.6595154C69.3600006,152.5800018,66.559967,164.3803253,61.6800003,181.5
	l-3.7200012-0.3600006c0.5599709-4.360321,1.9399719-11.2195129,4.1399994-20.5795135
	C64.3000336,151.2004852,65.599968,143.9601593,66,138.8395233c0.7200012-0.0796814,1.3000336-0.1190338,1.7399979-0.1190338
	c0.4000397,0,1.8799667,0.1593475,4.4400024,0.4799957c0.559967,0.0796661,1.3600311,1.8998413,2.4000015,5.4595184
	c1.0800018,3.5203247,2.159996,7.3996735,3.2399979,11.6399994s1.759964,6.7401581,2.0400009,7.4995117
	c1.1200333-2.7590332,2.4599991-7.2393646,4.0199966-13.4400024c1.6000366-6.1996613,2.7199707-10.1395111,3.3600006-11.819519
	c0.6400375,0.040329,2.6599655,0.2198486,6.0600052,0.5395203c1.0399628,4.0406494,2.0399933,8.4000092,2.9995117,13.0809631
	c1.0003204,4.6790466,2.0601654,9.9993744,3.1804886,15.9590454C100.639679,174.0801544,101.5199966,178.540329,102.1200027,181.5z
	 M127.4400024,178.8004761L128.0399933,181.5c-1.5599899,0-4.3996658,0.0595093-8.5199966,0.180481
	c-4.0799942,0.1593628-7.0396805,0.2400055-8.8799973,0.2400055c-2.9596786,0-4.980484-0.140152-6.0595169-0.4204865
	c0.399353-4.3996735,0.6393509-11.7599945,0.7200012-22.0800018c0.0796814-10.3199921,0.3398361-17.5200043,0.7795181-21.5999908
	c1.360321,0.1199951,4.9603195,0.2198334,10.7999954,0.2995148c5.8800049,0.0806274,9.7200012,0.2601471,11.5199966,0.5404816
	l0.6604919,2.7004852c-1.800972,0.3196716-5.4009705,0.6998444-10.8000031,1.1395111
	c-5.4009628,0.4396667-8.2406464,0.6796722-8.5209656,0.7200012c0.0403214,0.9196777,0.1209641,2.8003235,0.2399979,5.6399994
	c0.1603241,2.8396759,0.2601624,5.1801605,0.3004837,7.019516c1.360321,0.1603241,3.840004,0.4003296,7.4400024,0.7200012
	c3.5999985,0.2803192,5.8799973,0.4608154,6.8399963,0.5404816l0.6000061,2.7599945
	c-8.4403229,0.7603302-13.3795166,1.1596832-14.819519,1.2000122c0,1.7596741-0.0403214,4.4399872-0.1209717,8.0399933
	c-0.0393524,3.5596771-0.0595093,6.1795197-0.0595093,7.8595123
	C119.3203201,177.8404846,125.0803299,178.4395142,127.4400024,178.8004761z M125.819519,187.1399994l-1.7395172-3.1199951
	c2.200325-1.4803314,4.0800018-3.180481,5.6399994-5.1004944c1.5599976-1.9593506,2.7801514-3.8995056,3.6604767-5.8195038
	c0.879364-1.9603271,1.5791931-4.1798553,2.0995178-6.6604919c0.5203247-2.4796753,0.8400116-4.7596741,0.9600067-6.839035
	c0.1603241-2.120636,0.2399902-4.5599976,0.2399902-7.3209686c0-1.4399872,0.040329-3.6595154,0.1200104-6.6595154
	c0.1199951-3.040329,0.180481-5.3596649,0.180481-6.9599915c1.159668-0.1996765,2.9395142-0.3004913,5.3395233-0.3004913
	c1.0003204,0,2.519989,0.040329,4.5599976,0.1209717c2.0399933,0.0393524,3.579834,0.0595093,4.6195068,0.0595093
	c1.9199982,0,3.6806488-0.0796661,5.2799988-0.2399902c0.480011,2.6803284,0.7200012,6.8803253,0.7200012,12.5999908
	c0,1.5196838-0.0191803,3.9196777-0.0595093,7.2000122c-0.040329,3.2399902-0.0595245,5.6995087-0.0595245,7.3795166
	c0,6.5606384,0.2793732,11.9606323,0.839035,16.2009583c-0.359024,1.2393646-1.0396729,1.8595123-2.039032,1.8595123
	c-0.7200012,0-1.4208069-0.3004761-2.1004791-0.8995056c-0.6796722-0.5606384-1.1001587-1.2604828-1.2595215-2.1004944
	c0.0796814-3.1199951,0.1190338-5.4998322,0.1190338-7.1404724c0-2.3193665-0.0595093-5.959671-0.1795197-10.9190369
	c-0.0796661-4.9603271-0.1199951-8.8003235-0.1199951-11.5200043c0-3.6806335,0.040329-6.4204865,0.1199951-8.2204742
	c-0.9599915-0.0796814-2.6198425-0.1401672-4.9795074-0.1795197c-2.3606415-0.040329-4.1606445-0.140152-5.4009705-0.3004913
	c-0.3590393,2.0803375-0.6595154,4.8000031-0.8995209,8.1600037c-0.1996613,3.3196716-0.3801575,6.2803345-0.5404816,8.8800049
	c-0.1190338,2.560318-0.4799957,5.3999939-1.0790253,8.5200043c-0.5606384,3.0796661-1.3401642,5.7599945-2.3404846,8.0399933
	c-0.9600067,2.2799988-2.4403381,4.4400024-4.4400024,6.4799957
	C131.1196747,184.4203339,128.6995239,186.0196686,125.819519,187.1399994z M163.9795227,137.3995209l2.70047,0.6009674
	c0.040329,0.7593536,0.3004913,6.7391815,0.7804871,17.9395142c1.0790405-0.1603241,2.2790375-0.2400055,3.6000061-0.2400055
	c5.2799988,0,9.5999908,1.5004883,12.9599915,4.499527c3.3600006,2.9606323,5.0400085,6.4406281,5.0400085,10.4409637
	c0,8.1196747-5.020813,12.1795197-15.0604858,12.1795197c-2.5996704,0-4.980484-0.1996765-7.1404877-0.6000061
	c-2.1599884-0.4003296-3.399353-0.9004822-3.7190247-1.4995117c0.1190338-3.3600006,0.2198334-10.1606445,0.2995148-20.4000092
	C163.5196686,150.0398407,163.7001495,142.4001617,163.9795227,137.3995209z M167.7599945,160.4395142
	c0.2803345,8.5209656,0.480011,14.2003326,0.6000061,17.0400085c2.7599945,0.3609619,5.1801605,0.5404816,7.2604828,0.5404816
	c5.5996704,0,8.3999939-2.6601562,8.3999939-7.980484c0-2.7590332-1.1999969-5.079361-3.5999908-6.9600067
	c-2.3606415-1.9199982-5.4806366-2.8799896-9.3600006-2.8799896
	C169.8604889,160.1995239,168.7603302,160.2801514,167.7599945,160.4395142z M230.5200043,189.5399933h-2.7600098
	c-0.1996613-0.719986-0.6604767-3.4003143-1.3804779-8.0399933c-4.1990356,0.4396667-12.3791962,0.6604767-24.5395203,0.6604767
	c-4.9199982,0-7.9603271-0.0604706-9.1199951-0.180481c0.1199951-4.3199921,0.3196716-11.6803284,0.6000061-22.0800018
	c0.2803192-10.3996735,0.4799957-17.7599945,0.5999908-22.0799866l2.6995239,0.5999908
	c0.1209564,4.1999969,0.2803192,10.8796692,0.4799957,20.0400085c0.2400055,9.1199951,0.4204865,15.6796722,0.5404816,19.6799927
	l9.4799957-0.4204865c0.1603394-4.3996735,0.4204865-11.179184,0.7795258-20.3395081
	c0.3609619-9.1603394,0.6009674-15.6403351,0.7200012-19.4400024l2.7004852,0.5999908
	c0.1199951,4.1596832,0.2803192,10.7001648,0.4799957,19.6204834c0.2399902,8.9193726,0.4195099,15.3398438,0.5404816,19.2595215
	c2.9990387-0.2803192,6.1391907-0.4204865,9.4195099-0.4204865c0.1603394-4.3199921,0.4204865-10.9996643,0.7795258-20.039032
	c0.4003296-9.0806427,0.6604767-15.5606384,0.7804871-19.4400024l2.70047,0.5990448
	c-0.0403137,4.360321-0.0604706,9.8208008-0.0604706,16.3804779c0,4.8796692,0.0604706,11.6995239,0.1795044,20.4604797
	c0,0.1996765,0,0.5193634,0,0.9600067c0.040329,0.399353,0.0604858,0.6998444,0.0604858,0.8995209
	c0.4799957,0,1.2998505,0.0403137,2.4604797,0.1199951c1.1596832,0.040329,2.0995178,0.0595093,2.819519,0.0595093
	c0,0.1603394-0.0998383,1.8806458-0.3004761,5.160965C231.0201569,185.4398499,230.8003235,187.9003296,230.5200043,189.5399933z
	 M236.0399933,137.5204773l2.7004852,0.5990448c0.3993683,6.6009674,0.8591919,17.5804749,1.3795166,32.9404755
	c7.8000031-13.8796692,13.1596985-25.0396729,16.0800171-33.4799957c0.5999756-0.4799957,1.1798401-0.7200012,1.740448-0.7200012
	c0.8793945,0,1.5993958,0.5203247,2.1600037,1.5599976c0.5990601,1.0396729,0.9196777,2.2204895,0.9599915,3.5395203
	c0.1190796,3.7209625,0.2198486,10.0003204,0.29953,18.8409576c0.1200256,8.8396759,0.2803345,15.439682,0.480011,19.7990417
	c-0.3599854,1.1999969-1.0396729,1.8009644-2.0400085,1.8009644c-0.7200012,0-1.4198303-0.3004761-2.0995178-0.9004822
	c-0.6806335-0.5596771-1.1001587-1.2595215-1.2604675-2.1004791c0.1199951-3.4790344,0.1795349-8.819519,0.1795349-16.019516
	c0.0403137-7.2000122,0.0806274-12.0604858,0.1209412-14.5795288c-0.8803253,1.5196838-2.420166,4.3996735-4.6204834,8.6400146
	c-2.2003021,4.2393494-4.2403107,7.8796692-6.1199951,10.9190216c-1.840332,3.040329-3.7401581,5.6803284-5.7004852,7.9199982
	l0.2400055,4.8604889c-0.3590393,1.2403259-1.059845,1.8595123-2.0995178,1.8595123
	c-0.7200012,0-1.4198456-0.2995148-2.0995178-0.8995056c-0.6403351-0.6000061-1.0406342-1.3200073-1.1999969-2.1600037
	c0.1190338-3.4003296,0.2399902-10.059845,0.359024-19.980484
	C235.6204834,150.0398407,235.8000031,142.5604858,236.0399933,137.5204773z M285.2399902,138.3595123l3.480011-0.7200012
	c0.7200012,5.640976,1.1596985,13.4803314,1.3200073,23.5200043c0.1996765,10.0003357,0.4002991,16.6204834,0.6000061,19.8604889
	c-0.3600159,1.2403259-1.059845,1.8604736-2.1004944,1.8604736c-0.7200012,0-1.4198303-0.3004761-2.0995178-0.9004822
	c-0.6403198-0.5999908-1.0397034-1.3199921-1.2000122-2.1599884c0.0403137-1.4400024,0.0604858-3.8400116,0.0604858-7.2000122
	v-11.819519c-0.8803101,0.0393677-2.120636,0.1391907-3.7209473,0.29953
	c-1.5590515,0.1199951-2.999054,0.2198334-4.3200073,0.2995148c-1.2796631,0.0806427-2.4998474,0.1209564-3.6595154,0.1209564
	c-1.0397034,0-1.8000183-0.0201569-2.2799988-0.0604706c0.0796814,2.4403229,0.2198486,5.9001465,0.4195251,10.3804779
	c0.2006226,4.4390259,0.3407898,7.4995117,0.4204712,9.1795197c-0.3600159,1.2403259-1.059845,1.8604736-2.1004639,1.8604736
	c-0.7200012,0-1.4198608-0.3004761-2.0995483-0.9004822c-0.6402893-0.5999908-1.0396729-1.3199921-1.1999817-2.1599884
	c0.1199951-3.439682,0.2198486-10.1203308,0.3004456-20.0400085c0.1190796-9.9196777,0.3197021-17.3001556,0.5990906-22.1404877
	l2.7004395,0.6009674c0,0.1190338,0,0.3196716,0,0.5990448c0.0403137,0.2399902,0.0604858,0.4406281,0.0604858,0.6009674
	c0.5193787,9.8399963,0.8198547,15.9993591,0.8995361,18.4799957c1.3602905-0.1209717,2.800293-0.2400055,4.3200073-0.3609772
	c1.5599976-0.1593475,3.2601318-0.3196716,5.1004639-0.4799957c1.8796692-0.1996765,3.3398438-0.3398438,4.3795166-0.4195099
	c0.0403137,0,0.0595398-0.1996765,0.0595398-0.6000061s0-2.0198364,0-4.8595123
	C285.2198486,148.359848,285.2399902,144.0801544,285.2399902,138.3595123z M296.3999939,137.3995209l2.6995239,0.6009674
	c0.0403137,0.7593536,0.3004761,6.7391815,0.7804871,17.9395142c1.0799866-0.1603241,2.2799988-0.2400055,3.6000061-0.2400055
	c5.2799988,0,9.5999756,1.5004883,12.9599915,4.499527c3.3599854,2.9606323,5.0400085,6.4406281,5.0400085,10.4409637
	c0,8.1196747-5.0198669,12.1795197-15.0595398,12.1795197c-2.6006165,0-4.9804688-0.1996765-7.1404724-0.6000061
	s-3.4002991-0.9004822-3.7200012-1.4995117c0.1199951-3.3600006,0.2198486-10.1606445,0.3004761-20.4000092
	C295.940155,150.0398407,296.1196899,142.4001617,296.3999939,137.3995209z M300.180481,160.4395142
	c0.2793579,8.5209656,0.4799805,14.2003326,0.5990601,17.0400085c2.7609253,0.3609619,5.1801453,0.5404816,7.2604675,0.5404816
	c5.5996704,0,8.3999939-2.6601562,8.3999939-7.980484c0-2.7590332-1.2000122-5.079361-3.6000061-6.9600067
	c-2.3596802-1.9199982-5.4796753-2.8799896-9.3599854-2.8799896
	C302.2799988,160.1995239,301.1798401,160.2801514,300.180481,160.4395142z M328.4400024,137.8200073l2.70047,0.5999908
	c0.1190491,1.8796692,0.6192017,16.0396729,1.4995422,42.4799957c-0.3600159,1.2000122-1.0397034,1.8000031-2.0400085,1.8000031
	c-0.7200012,0-1.4198608-0.2995148-2.0995483-0.9004822c-0.680603-0.5596771-1.1001587-1.2595215-1.2604675-2.0995178
	c0.0797119-2.8799896,0.2198486-9.2399902,0.4195557-19.0800018
	C327.8995361,150.7799988,328.1596985,143.1796722,328.4400024,137.8200073z"/>
</svg>
