<svg width="347" height="199" viewBox="0 0 347 199" fill="none" xmlns="http://www.w3.org/2000/svg">
<path d="M3.625 8.875L1.6875 6.8125C6.14583 3.85417 10.2083 2.375 13.875 2.375C17.0417 2.375 19.6042 3.52083 21.5625 5.8125C23.5208 8.0625 24.5 10.8542 24.5 14.1875C24.5 18.3542 23.0833 21.2917 20.25 23C22.3333 23.3333 23.8958 24.5833 24.9375 26.75C25.9792 28.875 26.5 31.4167 26.5 34.375C26.5 38.875 25.5417 42.3542 23.625 44.8125C21.7083 47.2708 18.5208 48.5 14.0625 48.5C11.0625 48.5 8.22917 47.8333 5.5625 46.5C2.9375 45.1667 1.08333 43.25 0 40.75C0.208333 40.5833 0.354167 40.4167 0.4375 40.25C0.520833 40.0833 0.583333 39.9583 0.625 39.875C0.666667 39.7917 0.770833 39.6875 0.9375 39.5625C1.14583 39.3958 1.45833 39.2083 1.875 39C3.70833 40.6667 5.75 42.0208 8 43.0625C10.25 44.0625 12.375 44.5625 14.375 44.5625C16.625 44.5625 18.4167 43.8333 19.75 42.375C21.125 40.875 21.8125 38.5833 21.8125 35.5C21.8125 32.3333 20.9167 29.7708 19.125 27.8125C17.3333 25.8542 14.6875 24.875 11.1875 24.875C10.6875 24.875 9.8125 24.9167 8.5625 25C8.52083 24.75 8.41667 24.2917 8.25 23.625C8.125 22.9583 7.95833 21.8958 7.75 20.4375C8.20833 20.3958 9.04167 20.3542 10.25 20.3125C11.4583 20.2292 12.3125 20.1667 12.8125 20.125C13.3125 20.0417 14.0208 19.9167 14.9375 19.75C15.8958 19.5417 16.5833 19.2708 17 18.9375C17.4583 18.6042 17.9375 18.1875 18.4375 17.6875C18.9792 17.1458 19.3542 16.4583 19.5625 15.625C19.7708 14.7917 19.875 13.8125 19.875 12.6875C19.875 10.6458 19.1875 9.16667 17.8125 8.25C16.4792 7.29167 14.6875 6.8125 12.4375 6.8125C9.4375 6.8125 6.5 7.5 3.625 8.875ZM31.625 27.0625C31.625 25.6458 31.625 24.5833 31.625 23.875C31.625 23.125 31.6458 22 31.6875 20.5C31.7708 19 31.8542 17.8125 31.9375 16.9375C32.0625 16.0625 32.2292 14.9375 32.4375 13.5625C32.6458 12.1458 32.9167 11.0208 33.25 10.1875C33.5833 9.3125 33.9583 8.33333 34.375 7.25C34.8333 6.16667 35.3958 5.29167 36.0625 4.625C36.7292 3.95833 37.4583 3.33333 38.25 2.75C39.0417 2.125 39.9792 1.66667 41.0625 1.375C42.1458 1.08333 43.3333 0.9375 44.625 0.9375C47.2083 0.9375 49.4583 1.45833 51.375 2.5C53.2917 3.5 54.7917 4.77083 55.875 6.3125C56.9583 7.85417 57.8125 9.75 58.4375 12C59.1042 14.25 59.5208 16.3958 59.6875 18.4375C59.8958 20.4792 60 22.7292 60 25.1875C60 26.8542 59.9583 28.3542 59.875 29.6875C59.8333 31.0208 59.7083 32.5417 59.5 34.25C59.3333 35.9167 59.0625 37.3958 58.6875 38.6875C58.3542 39.9792 57.875 41.2917 57.25 42.625C56.625 43.9167 55.875 45 55 45.875C54.1667 46.7083 53.1042 47.3958 51.8125 47.9375C50.5208 48.4792 49.0833 48.75 47.5 48.75C44.9167 48.75 42.6875 48.4375 40.8125 47.8125C38.9792 47.1875 37.4583 46.3125 36.25 45.1875C35.0833 44.0625 34.1458 42.5833 33.4375 40.75C32.7708 38.9167 32.2917 36.9167 32 34.75C31.75 32.5833 31.625 30.0208 31.625 27.0625ZM55.5 27.5625C55.5 25.5208 55.3333 23.3958 55 21.1875C54.7083 18.9792 54.1875 16.6042 53.4375 14.0625C52.7292 11.5208 51.5833 9.45833 50 7.875C48.4167 6.25 46.5208 5.4375 44.3125 5.4375C42.6458 5.4375 41.1667 6.5625 39.875 8.8125C38.625 11.0208 37.7292 13.5208 37.1875 16.3125C36.6458 19.0625 36.375 21.6667 36.375 24.125C36.375 25.8333 36.375 27.1458 36.375 28.0625C36.4167 28.9375 36.5 30.2083 36.625 31.875C36.75 33.5 36.9167 34.7917 37.125 35.75C37.375 36.7083 37.75 37.8125 38.25 39.0625C38.75 40.3125 39.3333 41.2917 40 42C40.7083 42.6667 41.6042 43.2708 42.6875 43.8125C43.8125 44.3125 45.0625 44.5833 46.4375 44.625C49.4792 44.4583 51.75 42.75 53.25 39.5C54.75 36.25 55.5 32.2708 55.5 27.5625ZM59.1875 53.875L57.375 50.625C59.6667 49.0833 61.625 47.3125 63.25 45.3125C64.875 43.2708 66.1458 41.25 67.0625 39.25C67.9792 37.2083 68.7083 34.8958 69.25 32.3125C69.7917 29.7292 70.125 27.3542 70.25 25.1875C70.4167 22.9792 70.5 20.4375 70.5 17.5625C70.5 16.0625 70.5417 13.75 70.625 10.625C70.75 7.45833 70.8125 5.04167 70.8125 3.375C72.0208 3.16667 73.875 3.0625 76.375 3.0625C77.4167 3.0625 79 3.10417 81.125 3.1875C83.25 3.22917 84.8542 3.25 85.9375 3.25C87.9375 3.25 89.7708 3.16667 91.4375 3C91.9375 5.79167 92.1875 10.1667 92.1875 16.125C92.1875 17.7083 92.1667 20.2083 92.125 23.625C92.0833 27 92.0625 29.5625 92.0625 31.3125C92.0625 38.1458 92.3542 43.7708 92.9375 48.1875C92.5625 49.4792 91.8542 50.125 90.8125 50.125C90.0625 50.125 89.3333 49.8125 88.625 49.1875C87.9167 48.6042 87.4792 47.875 87.3125 47C87.3958 43.75 87.4375 41.2708 87.4375 39.5625C87.4375 37.1458 87.375 33.3542 87.25 28.1875C87.1667 23.0208 87.125 19.0208 87.125 16.1875C87.125 12.3542 87.1667 9.5 87.25 7.625C86.25 7.54167 84.5208 7.47917 82.0625 7.4375C79.6042 7.39583 77.7292 7.29167 76.4375 7.125C76.0625 9.29167 75.75 12.125 75.5 15.625C75.2917 19.0833 75.1042 22.1667 74.9375 24.875C74.8125 27.5417 74.4375 30.5 73.8125 33.75C73.2292 36.9583 72.4167 39.75 71.375 42.125C70.375 44.5 68.8333 46.75 66.75 48.875C64.7083 51.0417 62.1875 52.7083 59.1875 53.875ZM98.125 27.0625C98.125 25.6458 98.125 24.5833 98.125 23.875C98.125 23.125 98.1458 22 98.1875 20.5C98.2708 19 98.3542 17.8125 98.4375 16.9375C98.5625 16.0625 98.7292 14.9375 98.9375 13.5625C99.1458 12.1458 99.4167 11.0208 99.75 10.1875C100.083 9.3125 100.458 8.33333 100.875 7.25C101.333 6.16667 101.896 5.29167 102.562 4.625C103.229 3.95833 103.958 3.33333 104.75 2.75C105.542 2.125 106.479 1.66667 107.562 1.375C108.646 1.08333 109.833 0.9375 111.125 0.9375C113.708 0.9375 115.958 1.45833 117.875 2.5C119.792 3.5 121.292 4.77083 122.375 6.3125C123.458 7.85417 124.312 9.75 124.938 12C125.604 14.25 126.021 16.3958 126.188 18.4375C126.396 20.4792 126.5 22.7292 126.5 25.1875C126.5 26.8542 126.458 28.3542 126.375 29.6875C126.333 31.0208 126.208 32.5417 126 34.25C125.833 35.9167 125.562 37.3958 125.188 38.6875C124.854 39.9792 124.375 41.2917 123.75 42.625C123.125 43.9167 122.375 45 121.5 45.875C120.667 46.7083 119.604 47.3958 118.312 47.9375C117.021 48.4792 115.583 48.75 114 48.75C111.417 48.75 109.188 48.4375 107.312 47.8125C105.479 47.1875 103.958 46.3125 102.75 45.1875C101.583 44.0625 100.646 42.5833 99.9375 40.75C99.2708 38.9167 98.7917 36.9167 98.5 34.75C98.25 32.5833 98.125 30.0208 98.125 27.0625ZM122 27.5625C122 25.5208 121.833 23.3958 121.5 21.1875C121.208 18.9792 120.688 16.6042 119.938 14.0625C119.229 11.5208 118.083 9.45833 116.5 7.875C114.917 6.25 113.021 5.4375 110.812 5.4375C109.146 5.4375 107.667 6.5625 106.375 8.8125C105.125 11.0208 104.229 13.5208 103.688 16.3125C103.146 19.0625 102.875 21.6667 102.875 24.125C102.875 25.8333 102.875 27.1458 102.875 28.0625C102.917 28.9375 103 30.2083 103.125 31.875C103.25 33.5 103.417 34.7917 103.625 35.75C103.875 36.7083 104.25 37.8125 104.75 39.0625C105.25 40.3125 105.833 41.2917 106.5 42C107.208 42.6667 108.104 43.2708 109.188 43.8125C110.312 44.3125 111.562 44.5833 112.938 44.625C115.979 44.4583 118.25 42.75 119.75 39.5C121.25 36.25 122 32.2708 122 27.5625ZM126.25 6.0625L125.625 3.25L149.5 1.875C150.542 1.91667 151.417 2.29167 152.125 3C152.833 3.70833 153.188 4.47917 153.188 5.3125C153.188 5.85417 152.979 6.33333 152.562 6.75C152.146 7.16667 151.521 7.41667 150.688 7.5L140.188 6.9375C141.229 21.6458 142 35.0208 142.5 47.0625C142.125 48.3125 141.417 48.9375 140.375 48.9375C139.625 48.9375 138.896 48.625 138.188 48C137.479 47.4167 137.042 46.6875 136.875 45.8125C136.958 43.5625 137 40.1458 137 35.5625C137 33.8542 136.979 31.2917 136.938 27.875C136.938 24.4583 136.938 21.8958 136.938 20.1875C136.938 15.2292 137.021 10.75 137.188 6.75C132.479 6.41667 128.833 6.1875 126.25 6.0625ZM153.562 27.0625C153.562 25.6458 153.562 24.5833 153.562 23.875C153.562 23.125 153.583 22 153.625 20.5C153.708 19 153.792 17.8125 153.875 16.9375C154 16.0625 154.167 14.9375 154.375 13.5625C154.583 12.1458 154.854 11.0208 155.188 10.1875C155.521 9.3125 155.896 8.33333 156.312 7.25C156.771 6.16667 157.333 5.29167 158 4.625C158.667 3.95833 159.396 3.33333 160.188 2.75C160.979 2.125 161.917 1.66667 163 1.375C164.083 1.08333 165.271 0.9375 166.562 0.9375C169.146 0.9375 171.396 1.45833 173.312 2.5C175.229 3.5 176.729 4.77083 177.812 6.3125C178.896 7.85417 179.75 9.75 180.375 12C181.042 14.25 181.458 16.3958 181.625 18.4375C181.833 20.4792 181.938 22.7292 181.938 25.1875C181.938 26.8542 181.896 28.3542 181.812 29.6875C181.771 31.0208 181.646 32.5417 181.438 34.25C181.271 35.9167 181 37.3958 180.625 38.6875C180.292 39.9792 179.812 41.2917 179.188 42.625C178.562 43.9167 177.812 45 176.938 45.875C176.104 46.7083 175.042 47.3958 173.75 47.9375C172.458 48.4792 171.021 48.75 169.438 48.75C166.854 48.75 164.625 48.4375 162.75 47.8125C160.917 47.1875 159.396 46.3125 158.188 45.1875C157.021 44.0625 156.083 42.5833 155.375 40.75C154.708 38.9167 154.229 36.9167 153.938 34.75C153.688 32.5833 153.562 30.0208 153.562 27.0625ZM177.438 27.5625C177.438 25.5208 177.271 23.3958 176.938 21.1875C176.646 18.9792 176.125 16.6042 175.375 14.0625C174.667 11.5208 173.521 9.45833 171.938 7.875C170.354 6.25 168.458 5.4375 166.25 5.4375C164.583 5.4375 163.104 6.5625 161.812 8.8125C160.562 11.0208 159.667 13.5208 159.125 16.3125C158.583 19.0625 158.312 21.6667 158.312 24.125C158.312 25.8333 158.312 27.1458 158.312 28.0625C158.354 28.9375 158.438 30.2083 158.562 31.875C158.688 33.5 158.854 34.7917 159.062 35.75C159.312 36.7083 159.688 37.8125 160.188 39.0625C160.688 40.3125 161.271 41.2917 161.938 42C162.646 42.6667 163.542 43.2708 164.625 43.8125C165.75 44.3125 167 44.5833 168.375 44.625C171.417 44.4583 173.688 42.75 175.188 39.5C176.688 36.25 177.438 32.2708 177.438 27.5625ZM210.812 45.1875L211.438 48C209.812 48 206.854 48.0625 202.562 48.1875C198.312 48.3542 195.229 48.4375 193.312 48.4375C190.229 48.4375 188.125 48.2917 187 48C187.417 43.4167 187.667 35.75 187.75 25C187.833 14.25 188.104 6.75 188.562 2.5C189.979 2.625 193.729 2.72917 199.812 2.8125C205.938 2.89583 209.938 3.08333 211.812 3.375L212.5 6.1875C210.625 6.52083 206.875 6.91667 201.25 7.375C195.625 7.83333 192.667 8.08333 192.375 8.125C192.417 9.08333 192.5 11.0417 192.625 14C192.792 16.9583 192.896 19.3958 192.938 21.3125C194.354 21.4792 196.938 21.7292 200.688 22.0625C204.438 22.3542 206.812 22.5417 207.812 22.625L208.438 25.5C199.646 26.2917 194.5 26.7083 193 26.75C193 28.5833 192.958 31.375 192.875 35.125C192.833 38.8333 192.812 41.5625 192.812 43.3125C202.354 44.1875 208.354 44.8125 210.812 45.1875ZM32.5 117.625L32.6875 120C30.4792 120.667 28.375 121 26.375 121C24.4583 121 22.8125 120.479 21.4375 119.438C20.1042 118.438 19.0833 117.167 18.375 115.625C17.7083 114.083 17.0208 112.417 16.3125 110.625C15.6458 108.833 15 107.167 14.375 105.625C13.7917 104.083 12.9167 102.812 11.75 101.812C10.5833 100.771 9.1875 100.25 7.5625 100.25L8.1875 118.625C7.8125 119.917 7.08333 120.562 6 120.562C5.25 120.562 4.52083 120.25 3.8125 119.625C3.14583 119 2.72917 118.25 2.5625 117.375C2.60417 116.5 2.75 109.458 3 96.25C3.25 83 3.4375 75.3333 3.5625 73.25L6.375 73.875C6.41667 75.4583 6.54167 78.4375 6.75 82.8125C6.95833 87.1458 7.08333 90.0833 7.125 91.625C8.91667 91.5833 10.4375 90.9167 11.6875 89.625C12.9792 88.2917 14.0208 86.6875 14.8125 84.8125C15.6458 82.9375 16.4792 81.0833 17.3125 79.25C18.1458 77.375 19.2292 75.7917 20.5625 74.5C21.9375 73.1667 23.5625 72.5 25.4375 72.5C26.8542 72.5 29.25 72.8125 32.625 73.4375L32 75.9375C29.4167 75.5208 27.9375 75.3125 27.5625 75.3125C26.1042 75.3125 24.875 75.9167 23.875 77.125C22.875 78.3333 22.0417 79.8542 21.375 81.6875C20.7083 83.4792 19.9792 85.3333 19.1875 87.25C18.3958 89.125 17.2292 90.8542 15.6875 92.4375C14.1458 94.0208 12.25 95.0833 10 95.625C12 96.0833 13.7292 96.9792 15.1875 98.3125C16.6458 99.6458 17.7292 101.146 18.4375 102.812C19.1458 104.479 19.8333 106.25 20.5 108.125C21.1667 109.958 21.75 111.625 22.25 113.125C22.75 114.625 23.4375 115.875 24.3125 116.875C25.2292 117.875 26.3333 118.375 27.625 118.375C28.875 118.375 30.5 118.125 32.5 117.625ZM32.1875 98.0625C32.1875 96.6458 32.1875 95.5833 32.1875 94.875C32.1875 94.125 32.2083 93 32.25 91.5C32.3333 90 32.4167 88.8125 32.5 87.9375C32.625 87.0625 32.7917 85.9375 33 84.5625C33.2083 83.1458 33.4792 82.0208 33.8125 81.1875C34.1458 80.3125 34.5208 79.3333 34.9375 78.25C35.3958 77.1667 35.9583 76.2917 36.625 75.625C37.2917 74.9583 38.0208 74.3333 38.8125 73.75C39.6042 73.125 40.5417 72.6667 41.625 72.375C42.7083 72.0833 43.8958 71.9375 45.1875 71.9375C47.7708 71.9375 50.0208 72.4583 51.9375 73.5C53.8542 74.5 55.3542 75.7708 56.4375 77.3125C57.5208 78.8542 58.375 80.75 59 83C59.6667 85.25 60.0833 87.3958 60.25 89.4375C60.4583 91.4792 60.5625 93.7292 60.5625 96.1875C60.5625 97.8542 60.5208 99.3542 60.4375 100.688C60.3958 102.021 60.2708 103.542 60.0625 105.25C59.8958 106.917 59.625 108.396 59.25 109.688C58.9167 110.979 58.4375 112.292 57.8125 113.625C57.1875 114.917 56.4375 116 55.5625 116.875C54.7292 117.708 53.6667 118.396 52.375 118.938C51.0833 119.479 49.6458 119.75 48.0625 119.75C45.4792 119.75 43.25 119.438 41.375 118.812C39.5417 118.188 38.0208 117.312 36.8125 116.188C35.6458 115.062 34.7083 113.583 34 111.75C33.3333 109.917 32.8542 107.917 32.5625 105.75C32.3125 103.583 32.1875 101.021 32.1875 98.0625ZM56.0625 98.5625C56.0625 96.5208 55.8958 94.3958 55.5625 92.1875C55.2708 89.9792 54.75 87.6042 54 85.0625C53.2917 82.5208 52.1458 80.4583 50.5625 78.875C48.9792 77.25 47.0833 76.4375 44.875 76.4375C43.2083 76.4375 41.7292 77.5625 40.4375 79.8125C39.1875 82.0208 38.2917 84.5208 37.75 87.3125C37.2083 90.0625 36.9375 92.6667 36.9375 95.125C36.9375 96.8333 36.9375 98.1458 36.9375 99.0625C36.9792 99.9375 37.0625 101.208 37.1875 102.875C37.3125 104.5 37.4792 105.792 37.6875 106.75C37.9375 107.708 38.3125 108.812 38.8125 110.062C39.3125 111.312 39.8958 112.292 40.5625 113C41.2708 113.667 42.1667 114.271 43.25 114.812C44.375 115.312 45.625 115.583 47 115.625C50.0417 115.458 52.3125 113.75 53.8125 110.5C55.3125 107.25 56.0625 103.271 56.0625 98.5625ZM59.75 124.875L57.9375 121.625C60.2292 120.083 62.1875 118.312 63.8125 116.312C65.4375 114.271 66.7083 112.25 67.625 110.25C68.5417 108.208 69.2708 105.896 69.8125 103.312C70.3542 100.729 70.6875 98.3542 70.8125 96.1875C70.9792 93.9792 71.0625 91.4375 71.0625 88.5625C71.0625 87.0625 71.1042 84.75 71.1875 81.625C71.3125 78.4583 71.375 76.0417 71.375 74.375C72.5833 74.1667 74.4375 74.0625 76.9375 74.0625C77.9792 74.0625 79.5625 74.1042 81.6875 74.1875C83.8125 74.2292 85.4167 74.25 86.5 74.25C88.5 74.25 90.3333 74.1667 92 74C92.5 76.7917 92.75 81.1667 92.75 87.125C92.75 88.7083 92.7292 91.2083 92.6875 94.625C92.6458 98 92.625 100.562 92.625 102.312C92.625 109.146 92.9167 114.771 93.5 119.188C93.125 120.479 92.4167 121.125 91.375 121.125C90.625 121.125 89.8958 120.812 89.1875 120.188C88.4792 119.604 88.0417 118.875 87.875 118C87.9583 114.75 88 112.271 88 110.562C88 108.146 87.9375 104.354 87.8125 99.1875C87.7292 94.0208 87.6875 90.0208 87.6875 87.1875C87.6875 83.3542 87.7292 80.5 87.8125 78.625C86.8125 78.5417 85.0833 78.4792 82.625 78.4375C80.1667 78.3958 78.2917 78.2917 77 78.125C76.625 80.2917 76.3125 83.125 76.0625 86.625C75.8542 90.0833 75.6667 93.1667 75.5 95.875C75.375 98.5417 75 101.5 74.375 104.75C73.7917 107.958 72.9792 110.75 71.9375 113.125C70.9375 115.5 69.3958 117.75 67.3125 119.875C65.2708 122.042 62.75 123.708 59.75 124.875ZM99.5 73.0625L102.312 73.6875C102.354 74.4792 102.625 80.7083 103.125 92.375C104.25 92.2083 105.5 92.125 106.875 92.125C112.375 92.125 116.875 93.6875 120.375 96.8125C123.875 99.8958 125.625 103.521 125.625 107.688C125.625 116.146 120.396 120.375 109.938 120.375C107.229 120.375 104.75 120.167 102.5 119.75C100.25 119.333 98.9583 118.812 98.625 118.188C98.75 114.688 98.8542 107.604 98.9375 96.9375C99.0208 86.2292 99.2083 78.2708 99.5 73.0625ZM103.438 97.0625C103.729 105.938 103.938 111.854 104.062 114.812C106.938 115.188 109.458 115.375 111.625 115.375C117.458 115.375 120.375 112.604 120.375 107.062C120.375 104.188 119.125 101.771 116.625 99.8125C114.167 97.8125 110.917 96.8125 106.875 96.8125C105.625 96.8125 104.479 96.8958 103.438 97.0625ZM158.188 127.375H155.312C155.104 126.625 154.625 123.833 153.875 119C150.917 119.333 146.229 119.5 139.812 119.5C134.771 119.5 131.312 119.396 129.438 119.188C129.562 114.688 129.771 107.021 130.062 96.1875C130.354 85.3542 130.562 77.6875 130.688 73.1875L133.5 73.8125C133.625 78.1875 133.792 85.1458 134 94.6875C134.25 104.188 134.438 111.021 134.562 115.188C136.438 115.188 138.062 115.229 139.438 115.312C140.812 115.354 141.542 115.375 141.625 115.375C142.292 115.375 144.771 115.021 149.062 114.312C149.229 109.812 149.5 102.854 149.875 93.4375C150.292 83.9792 150.562 77.2292 150.688 73.1875L153.5 73.8125C153.458 76.7708 153.438 81.2083 153.438 87.125C153.438 95.125 153.5 103.479 153.625 112.188C153.625 112.396 153.625 112.729 153.625 113.188C153.667 113.604 153.688 113.917 153.688 114.125C154.188 114.125 155.042 114.167 156.25 114.25C157.458 114.292 158.438 114.312 159.188 114.312C159.188 114.479 159.083 116.271 158.875 119.688C158.708 123.104 158.479 125.667 158.188 127.375ZM160.062 98.0625C160.062 96.6458 160.062 95.5833 160.062 94.875C160.062 94.125 160.083 93 160.125 91.5C160.208 90 160.292 88.8125 160.375 87.9375C160.5 87.0625 160.667 85.9375 160.875 84.5625C161.083 83.1458 161.354 82.0208 161.688 81.1875C162.021 80.3125 162.396 79.3333 162.812 78.25C163.271 77.1667 163.833 76.2917 164.5 75.625C165.167 74.9583 165.896 74.3333 166.688 73.75C167.479 73.125 168.417 72.6667 169.5 72.375C170.583 72.0833 171.771 71.9375 173.062 71.9375C175.646 71.9375 177.896 72.4583 179.812 73.5C181.729 74.5 183.229 75.7708 184.312 77.3125C185.396 78.8542 186.25 80.75 186.875 83C187.542 85.25 187.958 87.3958 188.125 89.4375C188.333 91.4792 188.438 93.7292 188.438 96.1875C188.438 97.8542 188.396 99.3542 188.312 100.688C188.271 102.021 188.146 103.542 187.938 105.25C187.771 106.917 187.5 108.396 187.125 109.688C186.792 110.979 186.312 112.292 185.688 113.625C185.062 114.917 184.312 116 183.438 116.875C182.604 117.708 181.542 118.396 180.25 118.938C178.958 119.479 177.521 119.75 175.938 119.75C173.354 119.75 171.125 119.438 169.25 118.812C167.417 118.188 165.896 117.312 164.688 116.188C163.521 115.062 162.583 113.583 161.875 111.75C161.208 109.917 160.729 107.917 160.438 105.75C160.188 103.583 160.062 101.021 160.062 98.0625ZM183.938 98.5625C183.938 96.5208 183.771 94.3958 183.438 92.1875C183.146 89.9792 182.625 87.6042 181.875 85.0625C181.167 82.5208 180.021 80.4583 178.438 78.875C176.854 77.25 174.958 76.4375 172.75 76.4375C171.083 76.4375 169.604 77.5625 168.312 79.8125C167.062 82.0208 166.167 84.5208 165.625 87.3125C165.083 90.0625 164.812 92.6667 164.812 95.125C164.812 96.8333 164.812 98.1458 164.812 99.0625C164.854 99.9375 164.938 101.208 165.062 102.875C165.188 104.5 165.354 105.792 165.562 106.75C165.812 107.708 166.188 108.812 166.688 110.062C167.188 111.312 167.771 112.292 168.438 113C169.146 113.667 170.042 114.271 171.125 114.812C172.25 115.312 173.5 115.583 174.875 115.625C177.917 115.458 180.188 113.75 181.688 110.5C183.188 107.25 183.938 103.271 183.938 98.5625ZM26.25 145.25L26.875 148.062C25.0417 148.188 21.8333 148.396 17.25 148.688C12.6667 148.938 9.45833 149.146 7.625 149.312C7.75 153.271 7.83333 159.896 7.875 169.188C7.91667 178.479 8.02083 185.292 8.1875 189.625C7.8125 190.917 7.08333 191.562 6 191.562C5.25 191.562 4.52083 191.25 3.8125 190.625C3.14583 190 2.72917 189.25 2.5625 188.375C3.02083 183.125 3.3125 170.854 3.4375 151.562C3.4375 150.854 3.4375 149.771 3.4375 148.312C3.47917 146.854 3.5 145.708 3.5 144.875C5.75 145 8.02083 145.062 10.3125 145.062C11.2292 145.062 12.6042 145.062 14.4375 145.062C16.2708 145.021 17.6458 145 18.5625 145C21.3958 145 23.9583 145.083 26.25 145.25ZM29.5 169.062C29.5 167.646 29.5 166.583 29.5 165.875C29.5 165.125 29.5208 164 29.5625 162.5C29.6458 161 29.7292 159.812 29.8125 158.938C29.9375 158.062 30.1042 156.938 30.3125 155.562C30.5208 154.146 30.7917 153.021 31.125 152.188C31.4583 151.312 31.8333 150.333 32.25 149.25C32.7083 148.167 33.2708 147.292 33.9375 146.625C34.6042 145.958 35.3333 145.333 36.125 144.75C36.9167 144.125 37.8542 143.667 38.9375 143.375C40.0208 143.083 41.2083 142.938 42.5 142.938C45.0833 142.938 47.3333 143.458 49.25 144.5C51.1667 145.5 52.6667 146.771 53.75 148.312C54.8333 149.854 55.6875 151.75 56.3125 154C56.9792 156.25 57.3958 158.396 57.5625 160.438C57.7708 162.479 57.875 164.729 57.875 167.188C57.875 168.854 57.8333 170.354 57.75 171.688C57.7083 173.021 57.5833 174.542 57.375 176.25C57.2083 177.917 56.9375 179.396 56.5625 180.688C56.2292 181.979 55.75 183.292 55.125 184.625C54.5 185.917 53.75 187 52.875 187.875C52.0417 188.708 50.9792 189.396 49.6875 189.938C48.3958 190.479 46.9583 190.75 45.375 190.75C42.7917 190.75 40.5625 190.438 38.6875 189.812C36.8542 189.188 35.3333 188.312 34.125 187.188C32.9583 186.062 32.0208 184.583 31.3125 182.75C30.6458 180.917 30.1667 178.917 29.875 176.75C29.625 174.583 29.5 172.021 29.5 169.062ZM53.375 169.562C53.375 167.521 53.2083 165.396 52.875 163.188C52.5833 160.979 52.0625 158.604 51.3125 156.062C50.6042 153.521 49.4583 151.458 47.875 149.875C46.2917 148.25 44.3958 147.438 42.1875 147.438C40.5208 147.438 39.0417 148.562 37.75 150.812C36.5 153.021 35.6042 155.521 35.0625 158.312C34.5208 161.062 34.25 163.667 34.25 166.125C34.25 167.833 34.25 169.146 34.25 170.062C34.2917 170.938 34.375 172.208 34.5 173.875C34.625 175.5 34.7917 176.792 35 177.75C35.25 178.708 35.625 179.812 36.125 181.062C36.625 182.312 37.2083 183.292 37.875 184C38.5833 184.667 39.4792 185.271 40.5625 185.812C41.6875 186.312 42.9375 186.583 44.3125 186.625C47.3542 186.458 49.625 184.75 51.125 181.5C52.625 178.25 53.375 174.271 53.375 169.562ZM106.375 190L101.625 190.438C99.3333 176.062 96.8542 163.75 94.1875 153.5C92.8125 156.75 91.2917 161.333 89.625 167.25C88 173.125 86.875 176.938 86.25 178.688C86.1667 178.688 86.0208 178.708 85.8125 178.75C85.6458 178.75 85.5 178.75 85.375 178.75C84.7917 178.75 83.8333 178.688 82.5 178.562C81.1667 178.438 80.3125 178.375 79.9375 178.375C79.8958 177.167 78.8333 173.146 76.75 166.312C74.6667 159.438 73.4167 155.042 73 153.125C72.25 159.875 69.3333 172.167 64.25 190L60.375 189.625C60.9583 185.083 62.3958 177.938 64.6875 168.188C66.9792 158.438 68.3333 150.896 68.75 145.562C69.5 145.479 70.1042 145.438 70.5625 145.438C70.9792 145.438 72.5208 145.604 75.1875 145.938C75.7708 146.021 76.6042 147.917 77.6875 151.625C78.8125 155.292 79.9375 159.333 81.0625 163.75C82.1875 168.167 82.8958 170.771 83.1875 171.562C84.3542 168.688 85.75 164.021 87.375 157.562C89.0417 151.104 90.2083 147 90.875 145.25C91.5417 145.292 93.6458 145.479 97.1875 145.812C98.2708 150.021 99.3125 154.562 100.312 159.438C101.354 164.312 102.458 169.854 103.625 176.062C104.833 182.271 105.75 186.917 106.375 190ZM132.75 187.188L133.375 190C131.75 190 128.792 190.062 124.5 190.188C120.25 190.354 117.167 190.438 115.25 190.438C112.167 190.438 110.062 190.292 108.938 190C109.354 185.417 109.604 177.75 109.688 167C109.771 156.25 110.042 148.75 110.5 144.5C111.917 144.625 115.667 144.729 121.75 144.812C127.875 144.896 131.875 145.083 133.75 145.375L134.438 148.188C132.562 148.521 128.812 148.917 123.188 149.375C117.562 149.833 114.604 150.083 114.312 150.125C114.354 151.083 114.438 153.042 114.562 156C114.729 158.958 114.833 161.396 114.875 163.312C116.292 163.479 118.875 163.729 122.625 164.062C126.375 164.354 128.75 164.542 129.75 164.625L130.375 167.5C121.583 168.292 116.438 168.708 114.938 168.75C114.938 170.583 114.896 173.375 114.812 177.125C114.771 180.833 114.75 183.562 114.75 185.312C124.292 186.188 130.292 186.812 132.75 187.188ZM131.062 195.875L129.25 192.625C131.542 191.083 133.5 189.312 135.125 187.312C136.75 185.271 138.021 183.25 138.938 181.25C139.854 179.208 140.583 176.896 141.125 174.312C141.667 171.729 142 169.354 142.125 167.188C142.292 164.979 142.375 162.438 142.375 159.562C142.375 158.062 142.417 155.75 142.5 152.625C142.625 149.458 142.688 147.042 142.688 145.375C143.896 145.167 145.75 145.062 148.25 145.062C149.292 145.062 150.875 145.104 153 145.188C155.125 145.229 156.729 145.25 157.812 145.25C159.812 145.25 161.646 145.167 163.312 145C163.812 147.792 164.062 152.167 164.062 158.125C164.062 159.708 164.042 162.208 164 165.625C163.958 169 163.938 171.562 163.938 173.312C163.938 180.146 164.229 185.771 164.812 190.188C164.438 191.479 163.729 192.125 162.688 192.125C161.938 192.125 161.208 191.812 160.5 191.188C159.792 190.604 159.354 189.875 159.188 189C159.271 185.75 159.312 183.271 159.312 181.562C159.312 179.146 159.25 175.354 159.125 170.188C159.042 165.021 159 161.021 159 158.188C159 154.354 159.042 151.5 159.125 149.625C158.125 149.542 156.396 149.479 153.938 149.438C151.479 149.396 149.604 149.292 148.312 149.125C147.938 151.292 147.625 154.125 147.375 157.625C147.167 161.083 146.979 164.167 146.812 166.875C146.688 169.542 146.312 172.5 145.688 175.75C145.104 178.958 144.292 181.75 143.25 184.125C142.25 186.5 140.708 188.75 138.625 190.875C136.583 193.042 134.062 194.708 131.062 195.875ZM170.812 144.062L173.625 144.688C173.667 145.479 173.938 151.708 174.438 163.375C175.562 163.208 176.812 163.125 178.188 163.125C183.688 163.125 188.188 164.688 191.688 167.812C195.188 170.896 196.938 174.521 196.938 178.688C196.938 187.146 191.708 191.375 181.25 191.375C178.542 191.375 176.062 191.167 173.812 190.75C171.562 190.333 170.271 189.812 169.938 189.188C170.062 185.688 170.167 178.604 170.25 167.938C170.333 157.229 170.521 149.271 170.812 144.062ZM174.75 168.062C175.042 176.938 175.25 182.854 175.375 185.812C178.25 186.188 180.771 186.375 182.938 186.375C188.771 186.375 191.688 183.604 191.688 178.062C191.688 175.188 190.438 172.771 187.938 170.812C185.479 168.812 182.229 167.812 178.188 167.812C176.938 167.812 175.792 167.896 174.75 168.062ZM240.125 198.375H237.25C237.042 197.625 236.562 194.833 235.812 190C231.438 190.458 222.917 190.688 210.25 190.688C205.125 190.688 201.958 190.625 200.75 190.5C200.875 186 201.083 178.333 201.375 167.5C201.667 156.667 201.875 149 202 144.5L204.812 145.125C204.938 149.5 205.104 156.458 205.312 166C205.562 175.5 205.75 182.333 205.875 186.5L215.75 186.062C215.917 181.479 216.188 174.417 216.562 164.875C216.938 155.333 217.188 148.583 217.312 144.625L220.125 145.25C220.25 149.583 220.417 156.396 220.625 165.688C220.875 174.979 221.062 181.667 221.188 185.75C224.312 185.458 227.583 185.312 231 185.312C231.167 180.812 231.438 173.854 231.812 164.438C232.229 154.979 232.5 148.229 232.625 144.188L235.438 144.812C235.396 149.354 235.375 155.042 235.375 161.875C235.375 166.958 235.438 174.062 235.562 183.188C235.562 183.396 235.562 183.729 235.562 184.188C235.604 184.604 235.625 184.917 235.625 185.125C236.125 185.125 236.979 185.167 238.188 185.25C239.396 185.292 240.375 185.312 241.125 185.312C241.125 185.479 241.021 187.271 240.812 190.688C240.646 194.104 240.417 196.667 240.125 198.375ZM245.875 144.188L248.688 144.812C249.104 151.688 249.583 163.125 250.125 179.125C258.25 164.667 263.833 153.042 266.875 144.25C267.5 143.75 268.104 143.5 268.688 143.5C269.604 143.5 270.354 144.042 270.938 145.125C271.562 146.208 271.896 147.438 271.938 148.812C272.062 152.688 272.167 159.229 272.25 168.438C272.375 177.646 272.542 184.521 272.75 189.062C272.375 190.312 271.667 190.938 270.625 190.938C269.875 190.938 269.146 190.625 268.438 190C267.729 189.417 267.292 188.688 267.125 187.812C267.25 184.188 267.312 178.625 267.312 171.125C267.354 163.625 267.396 158.562 267.438 155.938C266.521 157.521 264.917 160.521 262.625 164.938C260.333 169.354 258.208 173.146 256.25 176.312C254.333 179.479 252.354 182.229 250.312 184.562L250.562 189.625C250.188 190.917 249.458 191.562 248.375 191.562C247.625 191.562 246.896 191.25 246.188 190.625C245.521 190 245.104 189.25 244.938 188.375C245.062 184.833 245.188 177.896 245.312 167.562C245.438 157.229 245.625 149.438 245.875 144.188ZM297.125 145.062L300.75 144.312C301.5 150.188 301.958 158.354 302.125 168.812C302.333 179.229 302.542 186.125 302.75 189.5C302.375 190.792 301.646 191.438 300.562 191.438C299.812 191.438 299.083 191.125 298.375 190.5C297.708 189.875 297.292 189.125 297.125 188.25C297.167 186.75 297.188 184.25 297.188 180.75V168.438C296.271 168.479 294.979 168.583 293.312 168.75C291.688 168.875 290.188 168.979 288.812 169.062C287.479 169.146 286.208 169.188 285 169.188C283.917 169.188 283.125 169.167 282.625 169.125C282.708 171.667 282.854 175.271 283.062 179.938C283.271 184.562 283.417 187.75 283.5 189.5C283.125 190.792 282.396 191.438 281.312 191.438C280.562 191.438 279.833 191.125 279.125 190.5C278.458 189.875 278.042 189.125 277.875 188.25C278 184.667 278.104 177.708 278.188 167.375C278.312 157.042 278.521 149.354 278.812 144.312L281.625 144.938C281.625 145.062 281.625 145.271 281.625 145.562C281.667 145.812 281.688 146.021 281.688 146.188C282.229 156.438 282.542 162.854 282.625 165.438C284.042 165.312 285.542 165.188 287.125 165.062C288.75 164.896 290.521 164.729 292.438 164.562C294.396 164.354 295.917 164.208 297 164.125C297.042 164.125 297.062 163.917 297.062 163.5C297.062 163.083 297.062 161.396 297.062 158.438C297.104 155.479 297.125 151.021 297.125 145.062ZM308.75 144.062L311.562 144.688C311.604 145.479 311.875 151.708 312.375 163.375C313.5 163.208 314.75 163.125 316.125 163.125C321.625 163.125 326.125 164.688 329.625 167.812C333.125 170.896 334.875 174.521 334.875 178.688C334.875 187.146 329.646 191.375 319.188 191.375C316.479 191.375 314 191.167 311.75 190.75C309.5 190.333 308.208 189.812 307.875 189.188C308 185.688 308.104 178.604 308.188 167.938C308.271 157.229 308.458 149.271 308.75 144.062ZM312.688 168.062C312.979 176.938 313.188 182.854 313.312 185.812C316.188 186.188 318.708 186.375 320.875 186.375C326.708 186.375 329.625 183.604 329.625 178.062C329.625 175.188 328.375 172.771 325.875 170.812C323.417 168.812 320.167 167.812 316.125 167.812C314.875 167.812 313.729 167.896 312.688 168.062ZM342.125 144.5L344.938 145.125C345.062 147.083 345.583 161.833 346.5 189.375C346.125 190.625 345.417 191.25 344.375 191.25C343.625 191.25 342.896 190.938 342.188 190.312C341.479 189.729 341.042 189 340.875 188.125C340.958 185.125 341.104 178.5 341.312 168.25C341.562 158 341.833 150.083 342.125 144.5Z" fill="black"/>
</svg>
